  0
SECTION
  2
HEADER
  9
$ACADVER
  1
AC1015
  9
$ACADMAINTVER
 70
     6
  9
$DWGCODEPAGE
  3
ANSI_1252
  9
$INSBASE
 10
0.0
 20
0.0
 30
0.0
  9
$EXTMIN
 10
0.0
 20
0.0
 30
0.0
  9
$EXTMAX
 10
1117.6
 20
863.6
 30
0.0
  9
$LIMMIN
 10
0.0
 20
0.0
  9
$LIMMAX
 10
1117.6
 20
863.6
  9
$ORTHOMODE
 70
     0
  9
$REGENMODE
 70
     1
  9
$FILLMODE
 70
     1
  9
$QTEXTMODE
 70
     0
  9
$MIRRTEXT
 70
     1
  9
$LTSCALE
 40
1.0
  9
$ATTMODE
 70
     1
  9
$TEXTSIZE
 40
3.5
  9
$TRACEWID
 40
1.0
  9
$TEXTSTYLE
  7
Standard
  9
$CLAYER
  8
0
  9
$CELTYPE
  6
ByLayer
  9
$CECOLOR
 62
   256
  9
$CELTSCALE
 40
1.0
  9
$DISPSILH
 70
     0
  9
$DIMSCALE
 40
1.0
  9
$DIMASZ
 40
3.302
  9
$DIMEXO
 40
1.0
  9
$DIMDLI
 40
3.75
  9
$DIMRND
 40
0.0
  9
$DIMDLE
 40
0.0
  9
$DIMEXE
 40
1.0
  9
$DIMTP
 40
0.0
  9
$DIMTM
 40
0.0
  9
$DIMTXT
 40
3.5
  9
$DIMCEN
 40
2.5
  9
$DIMTSZ
 40
0.0
  9
$DIMTOL
 70
     0
  9
$DIMLIM
 70
     0
  9
$DIMTIH
 70
     1
  9
$DIMTOH
 70
     1
  9
$DIMSE1
 70
     0
  9
$DIMSE2
 70
     0
  9
$DIMTAD
 70
     1
  9
$DIMZIN
 70
     1
  9
$DIMBLK
  1

  9
$DIMASO
 70
     1
  9
$DIMSHO
 70
     1
  9
$DIMPOST
  1

  9
$DIMAPOST
  1

  9
$DIMALT
 70
     0
  9
$DIMALTD
 70
     3
  9
$DIMALTF
 40
0.0393700787
  9
$DIMLFAC
 40
1.0
  9
$DIMTOFL
 70
     1
  9
$DIMTVP
 40
0.0
  9
$DIMTIX
 70
     0
  9
$DIMSOXD
 70
     0
  9
$DIMSAH
 70
     0
  9
$DIMBLK1
  1

  9
$DIMBLK2
  1

  9
$DIMSTYLE
  2
ISO-25
  9
$DIMCLRD
 70
     0
  9
$DIMCLRE
 70
     0
  9
$DIMCLRT
 70
     0
  9
$DIMTFAC
 40
1.0
  9
$DIMGAP
 40
1.524
  9
$DIMJUST
 70
     0
  9
$DIMSD1
 70
     0
  9
$DIMSD2
 70
     0
  9
$DIMTOLJ
 70
     0
  9
$DIMTZIN
 70
     1
  9
$DIMALTZ
 70
     0
  9
$DIMALTTZ
 70
     0
  9
$DIMUPT
 70
     0
  9
$DIMDEC
 70
     4
  9
$DIMTDEC
 70
     4
  9
$DIMALTU
 70
     2
  9
$DIMALTTD
 70
     3
  9
$DIMTXSTY
  7
Standard
  9
$DIMAUNIT
 70
     0
  9
$DIMADEC
 70
     0
  9
$DIMALTRND
 40
0.0
  9
$DIMAZIN
 70
     0
  9
$DIMDSEP
 70
    44
  9
$DIMATFIT
 70
     3
  9
$DIMFRAC
 70
     0
  9
$DIMLDRBLK
  1

  9
$DIMLUNIT
 70
     2
  9
$DIMLWD
 70
    -2
  9
$DIMLWE
 70
    -2
  9
$DIMTMOVE
 70
     0
  9
$LUNITS
 70
     2
  9
$LUPREC
 70
     4
  9
$SKETCHINC
 40
1.0
  9
$FILLETRAD
 40
10.0
  9
$AUNITS
 70
     0
  9
$AUPREC
 70
     0
  9
$MENU
  1
.
  9
$ELEVATION
 40
0.0
  9
$PELEVATION
 40
0.0
  9
$THICKNESS
 40
0.0
  9
$LIMCHECK
 70
     0
  9
$CHAMFERA
 40
0.0
  9
$CHAMFERB
 40
0.0
  9
$CHAMFERC
 40
0.0
  9
$CHAMFERD
 40
0.0
  9
$SKPOLY
 70
     0
  9
$TDCREATE
 40
2459711.734028704
  9
$TDUCREATE
 40
2459711.859028704
  9
$TDUPDATE
 40
2459711.73403066
  9
$TDUUPDATE
 40
2459711.85903066
  9
$TDINDWG
 40
0.0000000116
  9
$TDUSRTIMER
 40
0.0000000116
  9
$USRTIMER
 70
     1
  9
$ANGBASE
 50
0.0
  9
$ANGDIR
 70
     0
  9
$PDMODE
 70
     0
  9
$PDSIZE
 40
-1.0
  9
$PLINEWID
 40
0.0
  9
$SPLFRAME
 70
     0
  9
$SPLINETYPE
 70
     6
  9
$SPLINESEGS
 70
     8
  9
$HANDSEED
  5
2AF
  9
$SURFTAB1
 70
     6
  9
$SURFTAB2
 70
     6
  9
$SURFTYPE
 70
     6
  9
$SURFU
 70
     6
  9
$SURFV
 70
     6
  9
$UCSBASE
  2

  9
$UCSNAME
  2

  9
$UCSORG
 10
0.0
 20
0.0
 30
0.0
  9
$UCSXDIR
 10
1.0
 20
0.0
 30
0.0
  9
$UCSYDIR
 10
0.0
 20
1.0
 30
0.0
  9
$UCSORTHOREF
  2

  9
$UCSORTHOVIEW
 70
     0
  9
$UCSORGTOP
 10
0.0
 20
0.0
 30
0.0
  9
$UCSORGBOTTOM
 10
0.0
 20
0.0
 30
0.0
  9
$UCSORGLEFT
 10
0.0
 20
0.0
 30
0.0
  9
$UCSORGRIGHT
 10
0.0
 20
0.0
 30
0.0
  9
$UCSORGFRONT
 10
0.0
 20
0.0
 30
0.0
  9
$UCSORGBACK
 10
0.0
 20
0.0
 30
0.0
  9
$PUCSBASE
  2

  9
$PUCSNAME
  2

  9
$PUCSORG
 10
0.0
 20
0.0
 30
0.0
  9
$PUCSXDIR
 10
1.0
 20
0.0
 30
0.0
  9
$PUCSYDIR
 10
0.0
 20
1.0
 30
0.0
  9
$PUCSORTHOREF
  2

  9
$PUCSORTHOVIEW
 70
     0
  9
$PUCSORGTOP
 10
0.0
 20
0.0
 30
0.0
  9
$PUCSORGBOTTOM
 10
0.0
 20
0.0
 30
0.0
  9
$PUCSORGLEFT
 10
0.0
 20
0.0
 30
0.0
  9
$PUCSORGRIGHT
 10
0.0
 20
0.0
 30
0.0
  9
$PUCSORGFRONT
 10
0.0
 20
0.0
 30
0.0
  9
$PUCSORGBACK
 10
0.0
 20
0.0
 30
0.0
  9
$USERI1
 70
     0
  9
$USERI2
 70
     0
  9
$USERI3
 70
     0
  9
$USERI4
 70
     0
  9
$USERI5
 70
     0
  9
$USERR1
 40
0.0
  9
$USERR2
 40
0.0
  9
$USERR3
 40
0.0
  9
$USERR4
 40
0.0
  9
$USERR5
 40
0.0
  9
$WORLDVIEW
 70
     1
  9
$SHADEDGE
 70
     3
  9
$SHADEDIF
 70
    70
  9
$TILEMODE
 70
     1
  9
$MAXACTVP
 70
    64
  9
$PINSBASE
 10
0.0
 20
0.0
 30
0.0
  9
$PLIMCHECK
 70
     0
  9
$PEXTMIN
 10
1.0000000000E+20
 20
1.0000000000E+20
 30
1.0000000000E+20
  9
$PEXTMAX
 10
-1.0000000000E+20
 20
-1.0000000000E+20
 30
-1.0000000000E+20
  9
$PLIMMIN
 10
0.0
 20
0.0
  9
$PLIMMAX
 10
420.0
 20
297.0
  9
$UNITMODE
 70
     0
  9
$VISRETAIN
 70
     1
  9
$PLINEGEN
 70
     0
  9
$PSLTSCALE
 70
     1
  9
$TREEDEPTH
 70
  3020
  9
$CMLSTYLE
  2
Standard
  9
$CMLJUST
 70
     0
  9
$CMLSCALE
 40
20.0
  9
$PROXYGRAPHICS
 70
     1
  9
$MEASUREMENT
 70
     1
  9
$CELWEIGHT
370
    -1
  9
$ENDCAPS
280
     0
  9
$JOINSTYLE
280
     0
  9
$LWDISPLAY
290
     1
  9
$INSUNITS
 70
     4
  9
$HYPERLINKBASE
  1

  9
$STYLESHEET
  1

  9
$XEDIT
290
     1
  9
$CEPSNTYPE
380
     0
  9
$PSTYLEMODE
290
     1
  9
$FINGERPRINTGUID
  2
{d8e6adc9-4409-4db9-ac8c-3650749727e8}
  9
$VERSIONGUID
  2
{FAEB1C32-E019-11D5-929B-00C0DF256EC4}
  9
$EXTNAMES
290
     1
  9
$PSVPSCALE
 40
0.0
  9
$OLESTARTUP
290
     0
  0
ENDSEC
  0
SECTION
  2
CLASSES
  0
CLASS
  1
ACDBDICTIONARYWDFLT
  2
AcDbDictionaryWithDefault
  3
ObjectDBX Classes
 90
        0
280
     0
281
     0
  0
CLASS
  1
VISUALSTYLE
  2
AcDbVisualStyle
  3
ObjectDBX Classes
 90
     4095
280
     0
281
     0
  0
CLASS
  1
MATERIAL
  2
AcDbMaterial
  3
ObjectDBX Classes
 90
     1153
280
     0
281
     0
  0
CLASS
  1
SCALE
  2
AcDbScale
  3
ObjectDBX Classes
 90
     1153
280
     0
281
     0
  0
CLASS
  1
TABLESTYLE
  2
AcDbTableStyle
  3
ObjectDBX Classes
 90
     4095
280
     0
281
     0
  0
CLASS
  1
MLEADERSTYLE
  2
AcDbMLeaderStyle
  3
ACDB_MLEADERSTYLE_CLASS
 90
     4095
280
     0
281
     0
  0
CLASS
  1
SUN
  2
AcDbSun
  3
SCENEOE
 90
     1153
280
     0
281
     0
  0
CLASS
  1
ACDBPLACEHOLDER
  2
AcDbPlaceHolder
  3
ObjectDBX Classes
 90
        0
280
     0
281
     0
  0
CLASS
  1
LAYOUT
  2
AcDbLayout
  3
ObjectDBX Classes
 90
        0
280
     0
281
     0
  0
ENDSEC
  0
SECTION
  2
TABLES
  0
TABLE
  2
VPORT
  5
8
330
0
100
AcDbSymbolTable
 70
     1
  0
VPORT
  5
29
330
8
100
AcDbSymbolTableRecord
100
AcDbViewportTableRecord
  2
*Active
 70
     0
 10
0.0
 20
0.0
 11
1.0
 21
1.0
 12
558.8
 22
431.8
 13
0.0
 23
0.0
 14
10.0
 24
10.0
 15
10.0
 25
10.0
 16
0.0
 26
0.0
 36
1.0
 17
0.0
 27
0.0
 37
0.0
 40
863.6
 41
1.2941176471
 42
50.0
 43
0.0
 44
0.0
 50
0.0
 51
0.0
 71
     0
 72
  2000
 73
     1
 74
     3
 75
     0
 76
     0
 77
     0
 78
     0
281
     0
 65
     1
110
0.0
120
0.0
130
0.0
111
1.0
121
0.0
131
0.0
112
0.0
122
1.0
132
0.0
 79
     0
146
0.0
  0
ENDTAB
  0
TABLE
  2
LTYPE
  5
5
330
0
100
AcDbSymbolTable
 70
     6
  0
LTYPE
  5
14
330
5
100
AcDbSymbolTableRecord
100
AcDbLinetypeTableRecord
  2
ByBlock
 70
     0
  3

 72
    65
 73
     0
 40
0.0
  0
LTYPE
  5
15
330
5
100
AcDbSymbolTableRecord
100
AcDbLinetypeTableRecord
  2
ByLayer
 70
     0
  3

 72
    65
 73
     0
 40
0.0
  0
LTYPE
  5
16
330
5
100
AcDbSymbolTableRecord
100
AcDbLinetypeTableRecord
  2
Continuous
 70
     0
  3
Solid line
 72
    65
 73
     0
 40
0.0
  0
LTYPE
  5
6E
330
5
100
AcDbSymbolTableRecord
100
AcDbLinetypeTableRecord
  2
HIDDEN
 70
     0
  3
Hidden __ __ __ __ __ __ __ __ __ __ __ __ __ __
 72
    65
 73
     2
 40
1.905
 49
1.27
 74
     0
 49
-0.635
 74
     0
  0
LTYPE
  5
6F
330
5
100
AcDbSymbolTableRecord
100
AcDbLinetypeTableRecord
  2
PHANTOM
 70
     0
  3
Phantom ______  __  __  ______  __  __  ______
 72
    65
 73
     6
 40
12.7
 49
6.35
 74
     0
 49
-1.27
 74
     0
 49
1.27
 74
     0
 49
-1.27
 74
     0
 49
1.27
 74
     0
 49
-1.27
 74
     0
  0
LTYPE
  5
70
330
5
100
AcDbSymbolTableRecord
100
AcDbLinetypeTableRecord
  2
CENTER
 70
     0
  3
Center ____ _ ____ _ ____ _ ____ _ ____ _ ____
 72
    65
 73
     4
 40
10.16
 49
6.35
 74
     0
 49
-1.27
 74
     0
 49
1.27
 74
     0
 49
-1.27
 74
     0
  0
LTYPE
  5
71
330
5
100
AcDbSymbolTableRecord
100
AcDbLinetypeTableRecord
  2
CENTERX2
 70
     0
  3
Center (2x) ________  __  ________  __  _____
 72
    65
 73
     4
 40
20.32
 49
12.7
 74
     0
 49
-2.54
 74
     0
 49
2.54
 74
     0
 49
-2.54
 74
     0
  0
LTYPE
  5
72
330
5
100
AcDbSymbolTableRecord
100
AcDbLinetypeTableRecord
  2
DOT2
 70
     0
  3
Dot (.5x) ........................................
 72
    65
 73
     2
 40
0.635
 49
0.0
 74
     0
 49
-0.635
 74
     0
  0
ENDTAB
  0
TABLE
  2
LAYER
  5
2
330
0
100
AcDbSymbolTable
 70
     3
  0
LAYER
  5
10
330
2
100
AcDbSymbolTableRecord
100
AcDbLayerTableRecord
  2
0
 70
     0
 62
     7
  6
Continuous
370
    -3
390
F
  0
LAYER
  5
73
330
2
100
AcDbSymbolTableRecord
100
AcDbLayerTableRecord
  2
SLD-0
 70
     0
 62
   179
  6
Continuous
370
    -3
390
F
  0
LAYER
  5
74
330
2
100
AcDbSymbolTableRecord
100
AcDbLayerTableRecord
  2
1
 70
     0
 62
   179
  6
Continuous
370
    -3
390
F
  0
ENDTAB
  0
TABLE
  2
STYLE
  5
3
330
0
100
AcDbSymbolTable
 70
     2
  0
STYLE
  5
11
330
3
100
AcDbSymbolTableRecord
100
AcDbTextStyleTableRecord
  2
Standard
 70
     0
 40
0.0
 41
1.0
 50
0.0
 71
     0
 42
3.5
  3
txt
  4

  0
STYLE
  5
1BF
330
3
100
AcDbSymbolTableRecord
100
AcDbTextStyleTableRecord
  2
SLDTEXTSTYLE0
 70
     0
 40
0.0
 41
0.75
 50
0.0
 71
     0
 42
3.5
  3
TXT
  4

  0
ENDTAB
  0
TABLE
  2
VIEW
  5
6
330
0
100
AcDbSymbolTable
 70
     0
  0
ENDTAB
  0
TABLE
  2
UCS
  5
7
330
0
100
AcDbSymbolTable
 70
     0
  0
ENDTAB
  0
TABLE
  2
APPID
  5
9
330
0
100
AcDbSymbolTable
 70
     1
  0
APPID
  5
12
330
9
100
AcDbSymbolTableRecord
100
AcDbRegAppTableRecord
  2
ACAD
 70
     0
  0
ENDTAB
  0
TABLE
  2
DIMSTYLE
  5
A
330
0
100
AcDbSymbolTable
 70
     3
100
AcDbDimStyleTable
  0
DIMSTYLE
105
27
330
A
100
AcDbSymbolTableRecord
100
AcDbDimStyleTableRecord
  2
ISO-25
 70
     0
 41
2.5
 42
0.625
 43
3.75
 44
1.25
 73
     0
 74
     0
 77
     1
 78
     8
140
2.5
141
2.5
143
0.0393700787
147
0.625
171
     3
172
     1
178
     0
271
     2
272
     2
274
     3
278
    44
283
     0
284
     8
340
11
  0
DIMSTYLE
105
1C0
102
{ACAD_REACTORS
330
1BE
330
208
330
21D
330
233
330
23C
330
245
330
24D
330
257
330
279
330
2A6
102
}
330
A
100
AcDbSymbolTableRecord
100
AcDbDimStyleTableRecord
  2
SLDDIMSTYLE0
 70
     0
 41
3.302
 44
0.0
 45
0.000000001
 73
     0
 74
     0
 77
     1
 78
    12
 79
     3
140
3.5
147
0.875
173
     1
178
     0
276
     2
284
    12
340
1BF
  0
DIMSTYLE
105
1CB
102
{ACAD_REACTORS
330
1CA
330
1D7
330
1E3
330
1EF
330
1FB
330
211
330
227
330
261
330
26D
330
283
330
28F
330
29B
102
}
330
A
100
AcDbSymbolTableRecord
100
AcDbDimStyleTableRecord
  2
SLDDIMSTYLE1
 70
     0
 41
3.302
 44
0.0
 45
0.000000001
 73
     0
 74
     0
 77
     1
 78
    12
 79
     3
140
3.5
147
0.875
172
     1
173
     1
178
     0
276
     2
284
    12
289
     0
340
1BF
  0
ENDTAB
  0
TABLE
  2
BLOCK_RECORD
  5
1
330
0
100
AcDbSymbolTable
 70
    23
  0
BLOCK_RECORD
  5
1F
330
1
100
AcDbSymbolTableRecord
100
AcDbBlockTableRecord
  2
*Model_Space
340
22
  0
BLOCK_RECORD
  5
1B
330
1
100
AcDbSymbolTableRecord
100
AcDbBlockTableRecord
  2
*Paper_Space
340
1E
  0
BLOCK_RECORD
  5
23
330
1
100
AcDbSymbolTableRecord
100
AcDbBlockTableRecord
  2
*Paper_Space0
340
26
  0
BLOCK_RECORD
  5
1C1
330
1
100
AcDbSymbolTableRecord
100
AcDbBlockTableRecord
  2
_D
340
0
  0
BLOCK_RECORD
  5
1CC
330
1
100
AcDbSymbolTableRecord
100
AcDbBlockTableRecord
  2
_D_1
340
0
  0
BLOCK_RECORD
  5
1D8
330
1
100
AcDbSymbolTableRecord
100
AcDbBlockTableRecord
  2
_D_2
340
0
  0
BLOCK_RECORD
  5
1E4
330
1
100
AcDbSymbolTableRecord
100
AcDbBlockTableRecord
  2
_D_3
340
0
  0
BLOCK_RECORD
  5
1F0
330
1
100
AcDbSymbolTableRecord
100
AcDbBlockTableRecord
  2
_D_4
340
0
  0
BLOCK_RECORD
  5
1FC
330
1
100
AcDbSymbolTableRecord
100
AcDbBlockTableRecord
  2
_D_5
340
0
  0
BLOCK_RECORD
  5
209
330
1
100
AcDbSymbolTableRecord
100
AcDbBlockTableRecord
  2
_D_6
340
0
  0
BLOCK_RECORD
  5
212
330
1
100
AcDbSymbolTableRecord
100
AcDbBlockTableRecord
  2
_D_7
340
0
  0
BLOCK_RECORD
  5
21E
330
1
100
AcDbSymbolTableRecord
100
AcDbBlockTableRecord
  2
_D_8
340
0
  0
BLOCK_RECORD
  5
228
330
1
100
AcDbSymbolTableRecord
100
AcDbBlockTableRecord
  2
_D_9
340
0
  0
BLOCK_RECORD
  5
234
330
1
100
AcDbSymbolTableRecord
100
AcDbBlockTableRecord
  2
_D_10
340
0
  0
BLOCK_RECORD
  5
23D
330
1
100
AcDbSymbolTableRecord
100
AcDbBlockTableRecord
  2
_D_11
340
0
  0
BLOCK_RECORD
  5
246
330
1
100
AcDbSymbolTableRecord
100
AcDbBlockTableRecord
  2
_D_12
340
0
  0
BLOCK_RECORD
  5
24E
330
1
100
AcDbSymbolTableRecord
100
AcDbBlockTableRecord
  2
_D_13
340
0
  0
BLOCK_RECORD
  5
258
330
1
100
AcDbSymbolTableRecord
100
AcDbBlockTableRecord
  2
_D_14
340
0
  0
BLOCK_RECORD
  5
262
330
1
100
AcDbSymbolTableRecord
100
AcDbBlockTableRecord
  2
_D_15
340
0
  0
BLOCK_RECORD
  5
26E
330
1
100
AcDbSymbolTableRecord
100
AcDbBlockTableRecord
  2
_D_16
340
0
  0
BLOCK_RECORD
  5
27A
330
1
100
AcDbSymbolTableRecord
100
AcDbBlockTableRecord
  2
_D_17
340
0
  0
BLOCK_RECORD
  5
284
330
1
100
AcDbSymbolTableRecord
100
AcDbBlockTableRecord
  2
_D_18
340
0
  0
BLOCK_RECORD
  5
290
330
1
100
AcDbSymbolTableRecord
100
AcDbBlockTableRecord
  2
_D_19
340
0
  0
BLOCK_RECORD
  5
29C
330
1
100
AcDbSymbolTableRecord
100
AcDbBlockTableRecord
  2
_D_20
340
0
  0
BLOCK_RECORD
  5
2A7
330
1
100
AcDbSymbolTableRecord
100
AcDbBlockTableRecord
  2
_D_21
340
0
  0
ENDTAB
  0
ENDSEC
  0
SECTION
  2
BLOCKS
  0
BLOCK
  5
20
330
1F
100
AcDbEntity
  8
0
100
AcDbBlockBegin
  2
*Model_Space
 70
     0
 10
0.0
 20
0.0
 30
0.0
  3
*Model_Space
  1

  0
ENDBLK
  5
21
330
1F
100
AcDbEntity
  8
0
100
AcDbBlockEnd
  0
BLOCK
  5
1C
330
1B
100
AcDbEntity
 67
     1
  8
0
100
AcDbBlockBegin
  2
*Paper_Space
 70
     0
 10
0.0
 20
0.0
 30
0.0
  3
*Paper_Space
  1

  0
ENDBLK
  5
1D
330
1B
100
AcDbEntity
 67
     1
  8
0
100
AcDbBlockEnd
  0
BLOCK
  5
24
330
23
100
AcDbEntity
  8
0
100
AcDbBlockBegin
  2
*Paper_Space0
 70
     0
 10
0.0
 20
0.0
 30
0.0
  3
*Paper_Space0
  1

  0
ENDBLK
  5
25
330
23
100
AcDbEntity
  8
0
100
AcDbBlockEnd
  0
BLOCK
  5
1C2
330
1C1
100
AcDbEntity
  8
0
100
AcDbBlockBegin
  2
_D
 70
     0
 10
0.0
 20
0.0
 30
0.0
  3
_D
  1

  0
SOLID
  5
1C4
330
1C1
100
AcDbEntity
  8
1
100
AcDbTrace
 10
59.0
 20
314.5749174627
 30
0.0
 11
62.302
 21
314.0669174627
 31
0.0
 12
62.302
 22
315.0829174627
 32
0.0
 13
62.302
 23
315.0829174627
 33
0.0
  0
SOLID
  5
1C5
330
1C1
100
AcDbEntity
  8
1
100
AcDbTrace
 10
129.0
 20
314.5749174627
 30
0.0
 11
125.698
 21
315.0829174627
 31
0.0
 12
125.698
 22
314.0669174627
 32
0.0
 13
125.698
 23
314.0669174627
 33
0.0
  0
LINE
  5
1C6
330
1C1
100
AcDbEntity
  8
1
100
AcDbLine
 10
59.0
 20
90.0
 30
0.0
 11
59.0
 21
315.5749174627
 31
0.0
  0
LINE
  5
1C7
330
1C1
100
AcDbEntity
  8
1
100
AcDbLine
 10
129.0
 20
90.0
 30
0.0
 11
129.0
 21
315.5749174627
 31
0.0
  0
LINE
  5
1C8
330
1C1
100
AcDbEntity
  8
1
100
AcDbLine
 10
59.0
 20
314.5749174627
 30
0.0
 11
129.0
 21
314.5749174627
 31
0.0
  0
MTEXT
  5
1C9
330
1C1
100
AcDbEntity
  8
1
100
AcDbMText
 10
90.3683858074
 20
319.0866543773
 30
0.0
 40
3.5
 41
0.0
 71
     1
 72
     1
  1
70,0000
  7
SLDTEXTSTYLE0
 73
     1
 44
1.0
  0
ENDBLK
  5
1C3
330
1C1
100
AcDbEntity
  8
0
100
AcDbBlockEnd
  0
BLOCK
  5
1CD
330
1CC
100
AcDbEntity
  8
0
100
AcDbBlockBegin
  2
_D_1
 70
     0
 10
0.0
 20
0.0
 30
0.0
  3
_D_1
  1

  0
SOLID
  5
1CF
330
1CC
100
AcDbEntity
  8
1
100
AcDbTrace
 10
80.5298526998
 20
44.0332654994
 30
0.0
 11
77.2278526998
 21
44.5412654994
 31
0.0
 12
77.2278526998
 22
43.5252654994
 32
0.0
 13
77.2278526998
 23
43.5252654994
 33
0.0
  0
SOLID
  5
1D0
330
1CC
100
AcDbEntity
  8
1
100
AcDbTrace
 10
105.5298526998
 20
44.0332654994
 30
0.0
 11
108.8318526998
 21
43.5252654994
 31
0.0
 12
108.8318526998
 22
44.5412654994
 32
0.0
 13
108.8318526998
 23
44.5412654994
 33
0.0
  0
LINE
  5
1D1
330
1CC
100
AcDbEntity
  8
1
100
AcDbLine
 10
80.5298526998
 20
41.0114204771
 30
0.0
 11
80.5298526998
 21
45.0332654994
 31
0.0
  0
LINE
  5
1D2
330
1CC
100
AcDbEntity
  8
1
100
AcDbLine
 10
105.5298526998
 20
41.0114204771
 30
0.0
 11
105.5298526998
 21
45.0332654994
 31
0.0
  0
LINE
  5
1D3
330
1CC
100
AcDbEntity
  8
1
100
AcDbLine
 10
80.5298526998
 20
44.0332654994
 30
0.0
 11
74.1798526998
 21
44.0332654994
 31
0.0
  0
LINE
  5
1D4
330
1CC
100
AcDbEntity
  8
1
100
AcDbLine
 10
80.5298526998
 20
44.0332654994
 30
0.0
 11
105.5298526998
 21
44.0332654994
 31
0.0
  0
LINE
  5
1D5
330
1CC
100
AcDbEntity
  8
1
100
AcDbLine
 10
105.5298526998
 20
44.0332654994
 30
0.0
 11
111.8798526998
 21
44.0332654994
 31
0.0
  0
MTEXT
  5
1D6
330
1CC
100
AcDbEntity
  8
1
100
AcDbMText
 10
85.0206812519
 20
48.5450024139
 30
0.0
 40
3.5
 41
0.0
 71
     1
 72
     1
  1
25,0000
  7
SLDTEXTSTYLE0
 73
     1
 44
1.0
  0
ENDBLK
  5
1CE
330
1CC
100
AcDbEntity
  8
0
100
AcDbBlockEnd
  0
BLOCK
  5
1D9
330
1D8
100
AcDbEntity
  8
0
100
AcDbBlockBegin
  2
_D_2
 70
     0
 10
0.0
 20
0.0
 30
0.0
  3
_D_2
  1

  0
SOLID
  5
1DB
330
1D8
100
AcDbEntity
  8
1
100
AcDbTrace
 10
113.2038811524
 20
40.0114204771
 30
0.0
 11
113.7118811524
 21
43.3134204771
 31
0.0
 12
112.6958811524
 22
43.3134204771
 32
0.0
 13
112.6958811524
 23
43.3134204771
 33
0.0
  0
SOLID
  5
1DC
330
1D8
100
AcDbEntity
  8
1
100
AcDbTrace
 10
113.2038811524
 20
35.0114204771
 30
0.0
 11
112.6958811524
 21
31.7094204771
 31
0.0
 12
113.7118811524
 22
31.7094204771
 32
0.0
 13
113.7118811524
 23
31.7094204771
 33
0.0
  0
LINE
  5
1DD
330
1D8
100
AcDbEntity
  8
1
100
AcDbLine
 10
106.5298526998
 20
40.0114204771
 30
0.0
 11
114.2038811524
 21
40.0114204771
 31
0.0
  0
LINE
  5
1DE
330
1D8
100
AcDbEntity
  8
1
100
AcDbLine
 10
106.5298526998
 20
35.0114204771
 30
0.0
 11
114.2038811524
 21
35.0114204771
 31
0.0
  0
LINE
  5
1DF
330
1D8
100
AcDbEntity
  8
1
100
AcDbLine
 10
113.2038811524
 20
40.0114204771
 30
0.0
 11
113.2038811524
 21
46.3614204771
 31
0.0
  0
LINE
  5
1E0
330
1D8
100
AcDbEntity
  8
1
100
AcDbLine
 10
113.2038811524
 20
40.0114204771
 30
0.0
 11
113.2038811524
 21
35.0114204771
 31
0.0
  0
LINE
  5
1E1
330
1D8
100
AcDbEntity
  8
1
100
AcDbLine
 10
113.2038811524
 20
35.0114204771
 30
0.0
 11
113.2038811524
 21
28.6614204771
 31
0.0
  0
MTEXT
  5
1E2
330
1D8
100
AcDbEntity
  8
1
100
AcDbMText
 10
108.6921442378
 20
29.9323618942
 30
0.0
 40
3.5
 41
0.0
 71
     1
 72
     1
  1
5,0000
  7
SLDTEXTSTYLE0
 11
-4.379659758543259E-15
 21
1.0
 31
0.0
 73
     1
 44
1.0
  0
ENDBLK
  5
1DA
330
1D8
100
AcDbEntity
  8
0
100
AcDbBlockEnd
  0
BLOCK
  5
1E5
330
1E4
100
AcDbEntity
  8
0
100
AcDbBlockBegin
  2
_D_3
 70
     0
 10
0.0
 20
0.0
 30
0.0
  3
_D_3
  1

  0
SOLID
  5
1E7
330
1E4
100
AcDbEntity
  8
1
100
AcDbTrace
 10
70.9339270497
 20
50.0114204771
 30
0.0
 11
71.4419270497
 21
53.3134204771
 31
0.0
 12
70.4259270497
 22
53.3134204771
 32
0.0
 13
70.4259270497
 23
53.3134204771
 33
0.0
  0
SOLID
  5
1E8
330
1E4
100
AcDbEntity
  8
1
100
AcDbTrace
 10
70.9339270497
 20
40.0114204771
 30
0.0
 11
70.4259270497
 21
36.7094204771
 31
0.0
 12
71.4419270497
 22
36.7094204771
 32
0.0
 13
71.4419270497
 23
36.7094204771
 33
0.0
  0
LINE
  5
1E9
330
1E4
100
AcDbEntity
  8
1
100
AcDbLine
 10
80.7373510472
 20
50.0114204771
 30
0.0
 11
69.9339270497
 21
50.0114204771
 31
0.0
  0
LINE
  5
1EA
330
1E4
100
AcDbEntity
  8
1
100
AcDbLine
 10
79.5298526998
 20
40.0114204771
 30
0.0
 11
69.9339270497
 21
40.0114204771
 31
0.0
  0
LINE
  5
1EB
330
1E4
100
AcDbEntity
  8
1
100
AcDbLine
 10
70.9339270497
 20
50.0114204771
 30
0.0
 11
70.9339270497
 21
56.3614204771
 31
0.0
  0
LINE
  5
1EC
330
1E4
100
AcDbEntity
  8
1
100
AcDbLine
 10
70.9339270497
 20
50.0114204771
 30
0.0
 11
70.9339270497
 21
40.0114204771
 31
0.0
  0
LINE
  5
1ED
330
1E4
100
AcDbEntity
  8
1
100
AcDbLine
 10
70.9339270497
 20
40.0114204771
 30
0.0
 11
70.9339270497
 21
33.6614204771
 31
0.0
  0
MTEXT
  5
1EE
330
1E4
100
AcDbEntity
  8
1
100
AcDbMText
 10
66.4221901351
 20
35.105847709
 30
0.0
 40
3.5
 41
0.0
 71
     1
 72
     1
  1
10,0000
  7
SLDTEXTSTYLE0
 11
-7.044195017643634E-15
 21
1.0
 31
0.0
 73
     1
 44
1.0
  0
ENDBLK
  5
1E6
330
1E4
100
AcDbEntity
  8
0
100
AcDbBlockEnd
  0
BLOCK
  5
1F1
330
1F0
100
AcDbEntity
  8
0
100
AcDbBlockBegin
  2
_D_4
 70
     0
 10
0.0
 20
0.0
 30
0.0
  3
_D_4
  1

  0
SOLID
  5
1F3
330
1F0
100
AcDbEntity
  8
1
100
AcDbTrace
 10
80.5298526998
 20
21.6629784171
 30
0.0
 11
83.8318526998
 21
21.1549784171
 31
0.0
 12
83.8318526998
 22
22.1709784171
 32
0.0
 13
83.8318526998
 23
22.1709784171
 33
0.0
  0
SOLID
  5
1F4
330
1F0
100
AcDbEntity
  8
1
100
AcDbTrace
 10
58.0298526998
 20
21.6629784171
 30
0.0
 11
54.7278526998
 21
22.1709784171
 31
0.0
 12
54.7278526998
 22
21.1549784171
 32
0.0
 13
54.7278526998
 23
21.1549784171
 33
0.0
  0
LINE
  5
1F5
330
1F0
100
AcDbEntity
  8
1
100
AcDbLine
 10
80.5298526998
 20
34.0114204771
 30
0.0
 11
80.5298526998
 21
20.6629784171
 31
0.0
  0
LINE
  5
1F6
330
1F0
100
AcDbEntity
  8
1
100
AcDbLine
 10
58.0298526998
 20
36.8714204771
 30
0.0
 11
58.0298526998
 21
20.6629784171
 31
0.0
  0
LINE
  5
1F7
330
1F0
100
AcDbEntity
  8
1
100
AcDbLine
 10
80.5298526998
 20
21.6629784171
 30
0.0
 11
86.8798526998
 21
21.6629784171
 31
0.0
  0
LINE
  5
1F8
330
1F0
100
AcDbEntity
  8
1
100
AcDbLine
 10
80.5298526998
 20
21.6629784171
 30
0.0
 11
58.0298526998
 21
21.6629784171
 31
0.0
  0
LINE
  5
1F9
330
1F0
100
AcDbEntity
  8
1
100
AcDbLine
 10
58.0298526998
 20
21.6629784171
 30
0.0
 11
51.6798526998
 21
21.6629784171
 31
0.0
  0
MTEXT
  5
1FA
330
1F0
100
AcDbEntity
  8
1
100
AcDbMText
 10
63.0587358284
 20
26.1747153316
 30
0.0
 40
3.5
 41
0.0
 71
     1
 72
     1
  1
22,5000
  7
SLDTEXTSTYLE0
 73
     1
 44
1.0
  0
ENDBLK
  5
1F2
330
1F0
100
AcDbEntity
  8
0
100
AcDbBlockEnd
  0
BLOCK
  5
1FD
330
1FC
100
AcDbEntity
  8
0
100
AcDbBlockBegin
  2
_D_5
 70
     0
 10
0.0
 20
0.0
 30
0.0
  3
_D_5
  1

  0
SOLID
  5
1FF
330
1FC
100
AcDbEntity
  8
1
100
AcDbTrace
 10
109.0185290503
 20
8.6920872311
 30
0.0
 11
108.5105290503
 21
5.3900872311
 31
0.0
 12
109.5265290503
 22
5.3900872311
 32
0.0
 13
109.5265290503
 23
5.3900872311
 33
0.0
  0
SOLID
  5
200
330
1FC
100
AcDbEntity
  8
1
100
AcDbTrace
 10
109.0185290503
 20
18.6920872311
 30
0.0
 11
109.5265290503
 21
21.9940872311
 31
0.0
 12
108.5105290503
 22
21.9940872311
 32
0.0
 13
108.5105290503
 23
21.9940872311
 33
0.0
  0
LINE
  5
201
330
1FC
100
AcDbEntity
  8
1
100
AcDbLine
 10
94.0298526998
 20
8.6920872311
 30
0.0
 11
110.0185290503
 21
8.6920872311
 31
0.0
  0
LINE
  5
202
330
1FC
100
AcDbEntity
  8
1
100
AcDbLine
 10
94.0298526998
 20
18.6920872311
 30
0.0
 11
110.0185290503
 21
18.6920872311
 31
0.0
  0
LINE
  5
203
330
1FC
100
AcDbEntity
  8
1
100
AcDbLine
 10
109.0185290503
 20
8.6920872311
 30
0.0
 11
109.0185290503
 21
2.3420872311
 31
0.0
  0
LINE
  5
204
330
1FC
100
AcDbEntity
  8
1
100
AcDbLine
 10
109.0185290503
 20
8.6920872311
 30
0.0
 11
109.0185290503
 21
18.6920872311
 31
0.0
  0
LINE
  5
205
330
1FC
100
AcDbEntity
  8
1
100
AcDbLine
 10
109.0185290503
 20
18.6920872311
 30
0.0
 11
109.0185290503
 21
25.0420872311
 31
0.0
  0
MTEXT
  5
206
330
1FC
100
AcDbEntity
  8
1
100
AcDbMText
 10
104.5067919611
 20
-2.2256547308
 30
0.0
 40
3.5
 41
0.0
 71
     1
 72
     1
  1
%%c
  7
SLDTEXTSTYLE0
 11
6.123233995736766E-17
 21
1.0
 31
0.0
 73
     1
 44
1.0
  0
MTEXT
  5
207
330
1FC
100
AcDbEntity
  8
1
100
AcDbMText
 10
104.4533197845
 20
3.0527826676
 30
0.0
 40
3.5
 41
0.0
 71
     1
 72
     1
  1
10,0000
  7
SLDTEXTSTYLE0
 11
6.123233995736766E-17
 21
1.0
 31
0.0
 73
     1
 44
1.0
  0
ENDBLK
  5
1FE
330
1FC
100
AcDbEntity
  8
0
100
AcDbBlockEnd
  0
BLOCK
  5
20A
330
209
100
AcDbEntity
  8
0
100
AcDbBlockBegin
  2
_D_6
 70
     0
 10
0.0
 20
0.0
 30
0.0
  3
_D_6
  1

  0
SOLID
  5
20C
330
209
100
AcDbEntity
  8
1
100
AcDbTrace
 10
93.0298526998
 20
9.8550066938
 30
0.0
 11
96.3318526998
 21
9.3470066938
 31
0.0
 12
96.3318526998
 22
10.3630066938
 32
0.0
 13
96.3318526998
 23
10.3630066938
 33
0.0
  0
SOLID
  5
20D
330
209
100
AcDbEntity
  8
1
100
AcDbTrace
 10
128.0298526998
 20
9.8550066938
 30
0.0
 11
124.7278526998
 21
10.3630066938
 31
0.0
 12
124.7278526998
 22
9.3470066938
 32
0.0
 13
124.7278526998
 23
9.3470066938
 33
0.0
  0
LINE
  5
20E
330
209
100
AcDbEntity
  8
1
100
AcDbLine
 10
93.0298526998
 20
12.6920872311
 30
0.0
 11
93.0298526998
 21
8.8550066938
 31
0.0
  0
LINE
  5
20F
330
209
100
AcDbEntity
  8
1
100
AcDbLine
 10
93.0298526998
 20
9.8550066938
 30
0.0
 11
128.0298526998
 21
9.8550066938
 31
0.0
  0
MTEXT
  5
210
330
209
100
AcDbEntity
  8
1
100
AcDbMText
 10
108.4173332548
 20
14.3667436084
 30
0.0
 40
3.5
 41
0.0
 71
     1
 72
     1
  1
35,0000
  7
SLDTEXTSTYLE0
 73
     1
 44
1.0
  0
ENDBLK
  5
20B
330
209
100
AcDbEntity
  8
0
100
AcDbBlockEnd
  0
BLOCK
  5
213
330
212
100
AcDbEntity
  8
0
100
AcDbBlockBegin
  2
_D_7
 70
     0
 10
0.0
 20
0.0
 30
0.0
  3
_D_7
  1

  0
SOLID
  5
215
330
212
100
AcDbEntity
  8
1
100
AcDbTrace
 10
155.6082889994
 20
93.1993374831
 30
0.0
 11
158.9102889994
 21
92.6913374831
 31
0.0
 12
158.9102889994
 22
93.7073374831
 32
0.0
 13
158.9102889994
 23
93.7073374831
 33
0.0
  0
SOLID
  5
216
330
212
100
AcDbEntity
  8
1
100
AcDbTrace
 10
147.6082889994
 20
93.1993374831
 30
0.0
 11
144.3062889994
 21
93.7073374831
 31
0.0
 12
144.3062889994
 22
92.6913374831
 32
0.0
 13
144.3062889994
 23
92.6913374831
 33
0.0
  0
LINE
  5
217
330
212
100
AcDbEntity
  8
1
100
AcDbLine
 10
155.6082889994
 20
118.0
 30
0.0
 11
155.6082889994
 21
92.1993374831
 31
0.0
  0
LINE
  5
218
330
212
100
AcDbEntity
  8
1
100
AcDbLine
 10
147.6082889994
 20
98.0
 30
0.0
 11
147.6082889994
 21
92.1993374831
 31
0.0
  0
LINE
  5
219
330
212
100
AcDbEntity
  8
1
100
AcDbLine
 10
155.6082889994
 20
93.1993374831
 30
0.0
 11
161.9582889994
 21
93.1993374831
 31
0.0
  0
LINE
  5
21A
330
212
100
AcDbEntity
  8
1
100
AcDbLine
 10
155.6082889994
 20
93.1993374831
 30
0.0
 11
147.6082889994
 21
93.1993374831
 31
0.0
  0
LINE
  5
21B
330
212
100
AcDbEntity
  8
1
100
AcDbLine
 10
147.6082889994
 20
93.1993374831
 30
0.0
 11
141.2582889994
 21
93.1993374831
 31
0.0
  0
MTEXT
  5
21C
330
212
100
AcDbEntity
  8
1
100
AcDbMText
 10
144.9175356742
 20
97.7110743977
 30
0.0
 40
3.5
 41
0.0
 71
     1
 72
     1
  1
8,0000
  7
SLDTEXTSTYLE0
 73
     1
 44
1.0
  0
ENDBLK
  5
214
330
212
100
AcDbEntity
  8
0
100
AcDbBlockEnd
  0
BLOCK
  5
21F
330
21E
100
AcDbEntity
  8
0
100
AcDbBlockBegin
  2
_D_8
 70
     0
 10
0.0
 20
0.0
 30
0.0
  3
_D_8
  1

  0
SOLID
  5
221
330
21E
100
AcDbEntity
  8
1
100
AcDbTrace
 10
170.167185218
 20
99.0
 30
0.0
 11
170.675185218
 21
102.302
 31
0.0
 12
169.659185218
 22
102.302
 32
0.0
 13
169.659185218
 23
102.302
 33
0.0
  0
SOLID
  5
222
330
21E
100
AcDbEntity
  8
1
100
AcDbTrace
 10
170.167185218
 20
139.0
 30
0.0
 11
169.659185218
 21
135.698
 31
0.0
 12
170.675185218
 22
135.698
 32
0.0
 13
170.675185218
 23
135.698
 33
0.0
  0
LINE
  5
223
330
21E
100
AcDbEntity
  8
1
100
AcDbLine
 10
152.6082889994
 20
99.0
 30
0.0
 11
171.167185218
 21
99.0
 31
0.0
  0
LINE
  5
224
330
21E
100
AcDbEntity
  8
1
100
AcDbLine
 10
156.6082889994
 20
139.0
 30
0.0
 11
171.167185218
 21
139.0
 31
0.0
  0
LINE
  5
225
330
21E
100
AcDbEntity
  8
1
100
AcDbLine
 10
170.167185218
 20
99.0
 30
0.0
 11
170.167185218
 21
139.0
 31
0.0
  0
MTEXT
  5
226
330
21E
100
AcDbEntity
  8
1
100
AcDbMText
 10
165.6554483034
 20
111.8070410486
 30
0.0
 40
3.5
 41
0.0
 71
     1
 72
     1
  1
40,0000
  7
SLDTEXTSTYLE0
 11
6.123233995736766E-17
 21
1.0
 31
0.0
 73
     1
 44
1.0
  0
ENDBLK
  5
220
330
21E
100
AcDbEntity
  8
0
100
AcDbBlockEnd
  0
BLOCK
  5
229
330
228
100
AcDbEntity
  8
0
100
AcDbBlockBegin
  2
_D_9
 70
     0
 10
0.0
 20
0.0
 30
0.0
  3
_D_9
  1

  0
SOLID
  5
22B
330
228
100
AcDbEntity
  8
1
100
AcDbTrace
 10
166.6808103478
 20
99.0
 30
0.0
 11
167.1888103478
 21
102.302
 31
0.0
 12
166.1728103478
 22
102.302
 32
0.0
 13
166.1728103478
 23
102.302
 33
0.0
  0
SOLID
  5
22C
330
228
100
AcDbEntity
  8
1
100
AcDbTrace
 10
166.6808103478
 20
79.0
 30
0.0
 11
166.1728103478
 21
75.698
 31
0.0
 12
167.1888103478
 22
75.698
 32
0.0
 13
167.1888103478
 23
75.698
 33
0.0
  0
LINE
  5
22D
330
228
100
AcDbEntity
  8
1
100
AcDbLine
 10
156.6082889994
 20
99.0
 30
0.0
 11
167.6808103478
 21
99.0
 31
0.0
  0
LINE
  5
22E
330
228
100
AcDbEntity
  8
1
100
AcDbLine
 10
158.7482889994
 20
79.0
 30
0.0
 11
167.6808103478
 21
79.0
 31
0.0
  0
LINE
  5
22F
330
228
100
AcDbEntity
  8
1
100
AcDbLine
 10
166.6808103478
 20
99.0
 30
0.0
 11
166.6808103478
 21
105.35
 31
0.0
  0
LINE
  5
230
330
228
100
AcDbEntity
  8
1
100
AcDbLine
 10
166.6808103478
 20
99.0
 30
0.0
 11
166.6808103478
 21
79.0
 31
0.0
  0
LINE
  5
231
330
228
100
AcDbEntity
  8
1
100
AcDbLine
 10
166.6808103478
 20
79.0
 30
0.0
 11
166.6808103478
 21
72.65
 31
0.0
  0
MTEXT
  5
232
330
228
100
AcDbEntity
  8
1
100
AcDbMText
 10
162.1690734332
 20
81.2009462559
 30
0.0
 40
3.5
 41
0.0
 71
     1
 72
     1
  1
20,0000
  7
SLDTEXTSTYLE0
 11
-7.044195017643634E-15
 21
1.0
 31
0.0
 73
     1
 44
1.0
  0
ENDBLK
  5
22A
330
228
100
AcDbEntity
  8
0
100
AcDbBlockEnd
  0
BLOCK
  5
235
330
234
100
AcDbEntity
  8
0
100
AcDbBlockBegin
  2
_D_10
 70
     0
 10
0.0
 20
0.0
 30
0.0
  3
_D_10
  1

  0
SOLID
  5
237
330
234
100
AcDbEntity
  8
1
100
AcDbTrace
 10
155.6082889994
 20
166.0178306724
 30
0.0
 11
158.9102889994
 21
165.5098306724
 31
0.0
 12
158.9102889994
 22
166.5258306724
 32
0.0
 13
158.9102889994
 23
166.5258306724
 33
0.0
  0
SOLID
  5
238
330
234
100
AcDbEntity
  8
1
100
AcDbTrace
 10
195.6082889994
 20
166.0178306724
 30
0.0
 11
192.3062889994
 21
166.5258306724
 31
0.0
 12
192.3062889994
 22
165.5098306724
 32
0.0
 13
192.3062889994
 23
165.5098306724
 33
0.0
  0
LINE
  5
239
330
234
100
AcDbEntity
  8
1
100
AcDbLine
 10
155.6082889994
 20
140.0
 30
0.0
 11
155.6082889994
 21
167.0178306724
 31
0.0
  0
LINE
  5
23A
330
234
100
AcDbEntity
  8
1
100
AcDbLine
 10
155.6082889994
 20
166.0178306724
 30
0.0
 11
195.6082889994
 21
166.0178306724
 31
0.0
  0
MTEXT
  5
23B
330
234
100
AcDbEntity
  8
1
100
AcDbMText
 10
165.1819732548
 20
170.5295675869
 30
0.0
 40
3.5
 41
0.0
 71
     1
 72
     1
  1
40,0000
  7
SLDTEXTSTYLE0
 73
     1
 44
1.0
  0
ENDBLK
  5
236
330
234
100
AcDbEntity
  8
0
100
AcDbBlockEnd
  0
BLOCK
  5
23E
330
23D
100
AcDbEntity
  8
0
100
AcDbBlockBegin
  2
_D_11
 70
     0
 10
0.0
 20
0.0
 30
0.0
  3
_D_11
  1

  0
SOLID
  5
240
330
23D
100
AcDbEntity
  8
1
100
AcDbTrace
 10
145.6082889994
 20
212.7329521537
 30
0.0
 11
148.9102889994
 21
212.2249521537
 31
0.0
 12
148.9102889994
 22
213.2409521537
 32
0.0
 13
148.9102889994
 23
213.2409521537
 33
0.0
  0
SOLID
  5
241
330
23D
100
AcDbEntity
  8
1
100
AcDbTrace
 10
195.6082889994
 20
212.7329521537
 30
0.0
 11
192.3062889994
 21
213.2409521537
 31
0.0
 12
192.3062889994
 22
212.2249521537
 32
0.0
 13
192.3062889994
 23
212.2249521537
 33
0.0
  0
LINE
  5
242
330
23D
100
AcDbEntity
  8
1
100
AcDbLine
 10
145.6082889994
 20
233.0
 30
0.0
 11
145.6082889994
 21
211.7329521537
 31
0.0
  0
LINE
  5
243
330
23D
100
AcDbEntity
  8
1
100
AcDbLine
 10
145.6082889994
 20
212.7329521537
 30
0.0
 11
195.6082889994
 21
212.7329521537
 31
0.0
  0
MTEXT
  5
244
330
23D
100
AcDbEntity
  8
1
100
AcDbMText
 10
165.1223139282
 20
217.2446890683
 30
0.0
 40
3.5
 41
0.0
 71
     1
 72
     1
  1
50,0000
  7
SLDTEXTSTYLE0
 73
     1
 44
1.0
  0
ENDBLK
  5
23F
330
23D
100
AcDbEntity
  8
0
100
AcDbBlockEnd
  0
BLOCK
  5
247
330
246
100
AcDbEntity
  8
0
100
AcDbBlockBegin
  2
_D_12
 70
     0
 10
0.0
 20
0.0
 30
0.0
  3
_D_12
  1

  0
SOLID
  5
249
330
246
100
AcDbEntity
  8
1
100
AcDbTrace
 10
50.0
 20
212.7329521537
 30
0.0
 11
46.698
 21
213.2409521537
 31
0.0
 12
46.698
 22
212.2249521537
 32
0.0
 13
46.698
 23
212.2249521537
 33
0.0
  0
SOLID
  5
24A
330
246
100
AcDbEntity
  8
1
100
AcDbTrace
 10
0.0
 20
212.7329521537
 30
0.0
 11
3.302
 21
212.2249521537
 31
0.0
 12
3.302
 22
213.2409521537
 32
0.0
 13
3.302
 23
213.2409521537
 33
0.0
  0
LINE
  5
24B
330
246
100
AcDbEntity
  8
1
100
AcDbLine
 10
50.0
 20
212.7329521537
 30
0.0
 11
0.0
 21
212.7329521537
 31
0.0
  0
MTEXT
  5
24C
330
246
100
AcDbEntity
  8
1
100
AcDbMText
 10
17.0863375196
 20
217.2446890683
 30
0.0
 40
3.5
 41
0.0
 71
     1
 72
     1
  1
50,0000
  7
SLDTEXTSTYLE0
 73
     1
 44
1.0
  0
ENDBLK
  5
248
330
246
100
AcDbEntity
  8
0
100
AcDbBlockEnd
  0
BLOCK
  5
24F
330
24E
100
AcDbEntity
  8
0
100
AcDbBlockBegin
  2
_D_13
 70
     0
 10
0.0
 20
0.0
 30
0.0
  3
_D_13
  1

  0
SOLID
  5
251
330
24E
100
AcDbEntity
  8
1
100
AcDbTrace
 10
27.8882778885
 20
50.0114204771
 30
0.0
 11
27.3802778885
 21
46.7094204771
 31
0.0
 12
28.3962778885
 22
46.7094204771
 32
0.0
 13
28.3962778885
 23
46.7094204771
 33
0.0
  0
SOLID
  5
252
330
24E
100
AcDbEntity
  8
1
100
AcDbTrace
 10
27.8882778885
 20
0.0114204771
 30
0.0
 11
28.3962778885
 21
3.3134204771
 31
0.0
 12
27.3802778885
 22
3.3134204771
 32
0.0
 13
27.3802778885
 23
3.3134204771
 33
0.0
  0
LINE
  5
253
330
24E
100
AcDbEntity
  8
1
100
AcDbLine
 10
80.7373510472
 20
50.0114204771
 30
0.0
 11
26.8882778885
 21
50.0114204771
 31
0.0
  0
LINE
  5
254
330
24E
100
AcDbEntity
  8
1
100
AcDbLine
 10
57.0298526998
 20
0.0114204771
 30
0.0
 11
26.8882778885
 21
0.0114204771
 31
0.0
  0
LINE
  5
255
330
24E
100
AcDbEntity
  8
1
100
AcDbLine
 10
27.8882778885
 20
50.0114204771
 30
0.0
 11
27.8882778885
 21
0.0114204771
 31
0.0
  0
MTEXT
  5
256
330
24E
100
AcDbEntity
  8
1
100
AcDbMText
 10
23.3765409739
 20
17.4905846548
 30
0.0
 40
3.5
 41
0.0
 71
     1
 72
     1
  1
50,0000
  7
SLDTEXTSTYLE0
 11
-7.044195017643634E-15
 21
1.0
 31
0.0
 73
     1
 44
1.0
  0
ENDBLK
  5
250
330
24E
100
AcDbEntity
  8
0
100
AcDbBlockEnd
  0
BLOCK
  5
259
330
258
100
AcDbEntity
  8
0
100
AcDbBlockBegin
  2
_D_14
 70
     0
 10
0.0
 20
0.0
 30
0.0
  3
_D_14
  1

  0
SOLID
  5
25B
330
258
100
AcDbEntity
  8
1
100
AcDbTrace
 10
63.0
 20
193.9942863957
 30
0.0
 11
66.302
 21
193.4862863957
 31
0.0
 12
66.302
 22
194.5022863957
 32
0.0
 13
66.302
 23
194.5022863957
 33
0.0
  0
SOLID
  5
25C
330
258
100
AcDbEntity
  8
1
100
AcDbTrace
 10
125.0
 20
193.9942863957
 30
0.0
 11
121.698
 21
194.5022863957
 31
0.0
 12
121.698
 22
193.4862863957
 32
0.0
 13
121.698
 23
193.4862863957
 33
0.0
  0
LINE
  5
25D
330
258
100
AcDbEntity
  8
1
100
AcDbLine
 10
63.0
 20
181.0120825627
 30
0.0
 11
63.0
 21
194.9942863957
 31
0.0
  0
LINE
  5
25E
330
258
100
AcDbEntity
  8
1
100
AcDbLine
 10
125.0
 20
181.0120825627
 30
0.0
 11
125.0
 21
194.9942863957
 31
0.0
  0
LINE
  5
25F
330
258
100
AcDbEntity
  8
1
100
AcDbLine
 10
63.0
 20
193.9942863957
 30
0.0
 11
125.0
 21
193.9942863957
 31
0.0
  0
MTEXT
  5
260
330
258
100
AcDbEntity
  8
1
100
AcDbMText
 10
79.9191353269
 20
198.5060233103
 30
0.0
 40
3.5
 41
0.0
 71
     1
 72
     1
  1
62,0000
  7
SLDTEXTSTYLE0
 73
     1
 44
1.0
  0
ENDBLK
  5
25A
330
258
100
AcDbEntity
  8
0
100
AcDbBlockEnd
  0
BLOCK
  5
263
330
262
100
AcDbEntity
  8
0
100
AcDbBlockBegin
  2
_D_15
 70
     0
 10
0.0
 20
0.0
 30
0.0
  3
_D_15
  1

  0
SOLID
  5
265
330
262
100
AcDbEntity
  8
1
100
AcDbTrace
 10
30.2707519518
 20
180.0120825627
 30
0.0
 11
30.7787519518
 21
183.3140825627
 31
0.0
 12
29.7627519518
 22
183.3140825627
 32
0.0
 13
29.7627519518
 23
183.3140825627
 33
0.0
  0
SOLID
  5
266
330
262
100
AcDbEntity
  8
1
100
AcDbTrace
 10
30.2707519518
 20
173.0120825627
 30
0.0
 11
29.7627519518
 21
169.7100825627
 31
0.0
 12
30.7787519518
 22
169.7100825627
 32
0.0
 13
30.7787519518
 23
169.7100825627
 33
0.0
  0
LINE
  5
267
330
262
100
AcDbEntity
  8
1
100
AcDbLine
 10
62.0
 20
180.0120825627
 30
0.0
 11
29.2707519518
 21
180.0120825627
 31
0.0
  0
LINE
  5
268
330
262
100
AcDbEntity
  8
1
100
AcDbLine
 10
62.0
 20
173.0120825627
 30
0.0
 11
29.2707519518
 21
173.0120825627
 31
0.0
  0
LINE
  5
269
330
262
100
AcDbEntity
  8
1
100
AcDbLine
 10
30.2707519518
 20
180.0120825627
 30
0.0
 11
30.2707519518
 21
186.3620825627
 31
0.0
  0
LINE
  5
26A
330
262
100
AcDbEntity
  8
1
100
AcDbLine
 10
30.2707519518
 20
180.0120825627
 30
0.0
 11
30.2707519518
 21
173.0120825627
 31
0.0
  0
LINE
  5
26B
330
262
100
AcDbEntity
  8
1
100
AcDbLine
 10
30.2707519518
 20
173.0120825627
 30
0.0
 11
30.2707519518
 21
166.6620825627
 31
0.0
  0
MTEXT
  5
26C
330
262
100
AcDbEntity
  8
1
100
AcDbMText
 10
25.7590150373
 20
170.4846652898
 30
0.0
 40
3.5
 41
0.0
 71
     1
 72
     1
  1
7,0000
  7
SLDTEXTSTYLE0
 11
-7.044195017643634E-15
 21
1.0
 31
0.0
 73
     1
 44
1.0
  0
ENDBLK
  5
264
330
262
100
AcDbEntity
  8
0
100
AcDbBlockEnd
  0
BLOCK
  5
26F
330
26E
100
AcDbEntity
  8
0
100
AcDbBlockBegin
  2
_D_16
 70
     0
 10
0.0
 20
0.0
 30
0.0
  3
_D_16
  1

  0
SOLID
  5
271
330
26E
100
AcDbEntity
  8
1
100
AcDbTrace
 10
63.0
 20
159.4608953101
 30
0.0
 11
66.302
 21
158.9528953101
 31
0.0
 12
66.302
 22
159.9688953101
 32
0.0
 13
66.302
 23
159.9688953101
 33
0.0
  0
SOLID
  5
272
330
26E
100
AcDbEntity
  8
1
100
AcDbTrace
 10
59.0
 20
159.4608953101
 30
0.0
 11
55.698
 21
159.9688953101
 31
0.0
 12
55.698
 22
158.9528953101
 32
0.0
 13
55.698
 23
158.9528953101
 33
0.0
  0
LINE
  5
273
330
26E
100
AcDbEntity
  8
1
100
AcDbLine
 10
63.0
 20
172.0120825627
 30
0.0
 11
63.0
 21
158.4608953101
 31
0.0
  0
LINE
  5
274
330
26E
100
AcDbEntity
  8
1
100
AcDbLine
 10
59.0
 20
178.0
 30
0.0
 11
59.0
 21
158.4608953101
 31
0.0
  0
LINE
  5
275
330
26E
100
AcDbEntity
  8
1
100
AcDbLine
 10
63.0
 20
159.4608953101
 30
0.0
 11
70.7696344119
 21
159.4608953101
 31
0.0
  0
LINE
  5
276
330
26E
100
AcDbEntity
  8
1
100
AcDbLine
 10
63.0
 20
159.4608953101
 30
0.0
 11
59.0
 21
159.4608953101
 31
0.0
  0
LINE
  5
277
330
26E
100
AcDbEntity
  8
1
100
AcDbLine
 10
59.0
 20
159.4608953101
 30
0.0
 11
52.65
 21
159.4608953101
 31
0.0
  0
MTEXT
  5
278
330
26E
100
AcDbEntity
  8
1
100
AcDbMText
 10
56.5460224983
 20
163.9726322247
 30
0.0
 40
3.5
 41
0.0
 71
     1
 72
     1
  1
4,0000
  7
SLDTEXTSTYLE0
 73
     1
 44
1.0
  0
ENDBLK
  5
270
330
26E
100
AcDbEntity
  8
0
100
AcDbBlockEnd
  0
BLOCK
  5
27B
330
27A
100
AcDbEntity
  8
0
100
AcDbBlockBegin
  2
_D_17
 70
     0
 10
0.0
 20
0.0
 30
0.0
  3
_D_17
  1

  0
SOLID
  5
27D
330
27A
100
AcDbEntity
  8
1
100
AcDbTrace
 10
76.5
 20
141.0361459318
 30
0.0
 11
79.802
 21
140.5281459318
 31
0.0
 12
79.802
 22
141.5441459318
 32
0.0
 13
79.802
 23
141.5441459318
 33
0.0
  0
SOLID
  5
27E
330
27A
100
AcDbEntity
  8
1
100
AcDbTrace
 10
111.5
 20
141.0361459318
 30
0.0
 11
108.198
 21
141.5441459318
 31
0.0
 12
108.198
 22
140.5281459318
 32
0.0
 13
108.198
 23
140.5281459318
 33
0.0
  0
LINE
  5
27F
330
27A
100
AcDbEntity
  8
1
100
AcDbLine
 10
76.5
 20
166.0120825627
 30
0.0
 11
76.5
 21
140.0361459318
 31
0.0
  0
LINE
  5
280
330
27A
100
AcDbEntity
  8
1
100
AcDbLine
 10
111.5
 20
166.0120825627
 30
0.0
 11
111.5
 21
140.0361459318
 31
0.0
  0
LINE
  5
281
330
27A
100
AcDbEntity
  8
1
100
AcDbLine
 10
76.5
 20
141.0361459318
 30
0.0
 11
111.5
 21
141.0361459318
 31
0.0
  0
MTEXT
  5
282
330
27A
100
AcDbEntity
  8
1
100
AcDbMText
 10
86.4329279432
 20
145.5478828464
 30
0.0
 40
3.5
 41
0.0
 71
     1
 72
     1
  1
35,0000
  7
SLDTEXTSTYLE0
 73
     1
 44
1.0
  0
ENDBLK
  5
27C
330
27A
100
AcDbEntity
  8
0
100
AcDbBlockEnd
  0
BLOCK
  5
285
330
284
100
AcDbEntity
  8
0
100
AcDbBlockBegin
  2
_D_18
 70
     0
 10
0.0
 20
0.0
 30
0.0
  3
_D_18
  1

  0
SOLID
  5
287
330
284
100
AcDbEntity
  8
1
100
AcDbTrace
 10
73.4736300858
 20
167.0120825627
 30
0.0
 11
73.9816300858
 21
170.3140825627
 31
0.0
 12
72.9656300858
 22
170.3140825627
 32
0.0
 13
72.9656300858
 23
170.3140825627
 33
0.0
  0
SOLID
  5
288
330
284
100
AcDbEntity
  8
1
100
AcDbTrace
 10
73.4736300858
 20
160.0120825627
 30
0.0
 11
72.9656300858
 21
156.7100825627
 31
0.0
 12
73.9816300858
 22
156.7100825627
 32
0.0
 13
73.9816300858
 23
156.7100825627
 33
0.0
  0
LINE
  5
289
330
284
100
AcDbEntity
  8
1
100
AcDbLine
 10
75.5
 20
167.0120825627
 30
0.0
 11
72.4736300858
 21
167.0120825627
 31
0.0
  0
LINE
  5
28A
330
284
100
AcDbEntity
  8
1
100
AcDbLine
 10
75.5
 20
160.0120825627
 30
0.0
 11
72.4736300858
 21
160.0120825627
 31
0.0
  0
LINE
  5
28B
330
284
100
AcDbEntity
  8
1
100
AcDbLine
 10
73.4736300858
 20
167.0120825627
 30
0.0
 11
73.4736300858
 21
173.3620825627
 31
0.0
  0
LINE
  5
28C
330
284
100
AcDbEntity
  8
1
100
AcDbLine
 10
73.4736300858
 20
167.0120825627
 30
0.0
 11
73.4736300858
 21
160.0120825627
 31
0.0
  0
LINE
  5
28D
330
284
100
AcDbEntity
  8
1
100
AcDbLine
 10
73.4736300858
 20
160.0120825627
 30
0.0
 11
73.4736300858
 21
153.6620825627
 31
0.0
  0
MTEXT
  5
28E
330
284
100
AcDbEntity
  8
1
100
AcDbMText
 10
68.9618931712
 20
157.3867458203
 30
0.0
 40
3.5
 41
0.0
 71
     1
 72
     1
  1
7,0000
  7
SLDTEXTSTYLE0
 11
-7.044195017643634E-15
 21
1.0
 31
0.0
 73
     1
 44
1.0
  0
ENDBLK
  5
286
330
284
100
AcDbEntity
  8
0
100
AcDbBlockEnd
  0
BLOCK
  5
291
330
290
100
AcDbEntity
  8
0
100
AcDbBlockBegin
  2
_D_19
 70
     0
 10
0.0
 20
0.0
 30
0.0
  3
_D_19
  1

  0
SOLID
  5
293
330
290
100
AcDbEntity
  8
1
100
AcDbTrace
 10
76.5
 20
147.5073825327
 30
0.0
 11
79.802
 21
146.9993825327
 31
0.0
 12
79.802
 22
148.0153825327
 32
0.0
 13
79.802
 23
148.0153825327
 33
0.0
  0
SOLID
  5
294
330
290
100
AcDbEntity
  8
1
100
AcDbTrace
 10
59.0
 20
147.5073825327
 30
0.0
 11
55.698
 21
148.0153825327
 31
0.0
 12
55.698
 22
146.9993825327
 32
0.0
 13
55.698
 23
146.9993825327
 33
0.0
  0
LINE
  5
295
330
290
100
AcDbEntity
  8
1
100
AcDbLine
 10
76.5
 20
159.0120825627
 30
0.0
 11
76.5
 21
146.5073825327
 31
0.0
  0
LINE
  5
296
330
290
100
AcDbEntity
  8
1
100
AcDbLine
 10
59.0
 20
158.0
 30
0.0
 11
59.0
 21
146.5073825327
 31
0.0
  0
LINE
  5
297
330
290
100
AcDbEntity
  8
1
100
AcDbLine
 10
76.5
 20
147.5073825327
 30
0.0
 11
82.85
 21
147.5073825327
 31
0.0
  0
LINE
  5
298
330
290
100
AcDbEntity
  8
1
100
AcDbLine
 10
76.5
 20
147.5073825327
 30
0.0
 11
59.0
 21
147.5073825327
 31
0.0
  0
LINE
  5
299
330
290
100
AcDbEntity
  8
1
100
AcDbLine
 10
59.0
 20
147.5073825327
 30
0.0
 11
52.65
 21
147.5073825327
 31
0.0
  0
MTEXT
  5
29A
330
290
100
AcDbEntity
  8
1
100
AcDbMText
 10
56.0640558924
 20
152.0191194473
 30
0.0
 40
3.5
 41
0.0
 71
     1
 72
     1
  1
17,5000
  7
SLDTEXTSTYLE0
 73
     1
 44
1.0
  0
ENDBLK
  5
292
330
290
100
AcDbEntity
  8
0
100
AcDbBlockEnd
  0
BLOCK
  5
29D
330
29C
100
AcDbEntity
  8
0
100
AcDbBlockBegin
  2
_D_20
 70
     0
 10
0.0
 20
0.0
 30
0.0
  3
_D_20
  1

  0
SOLID
  5
29F
330
29C
100
AcDbEntity
  8
1
100
AcDbTrace
 10
120.9002664907
 20
160.0120825627
 30
0.0
 11
120.3922664907
 21
156.7100825627
 31
0.0
 12
121.4082664907
 22
156.7100825627
 32
0.0
 13
121.4082664907
 23
156.7100825627
 33
0.0
  0
SOLID
  5
2A0
330
29C
100
AcDbEntity
  8
1
100
AcDbTrace
 10
120.9002664907
 20
180.0120825627
 30
0.0
 11
121.4082664907
 21
183.3140825627
 31
0.0
 12
120.3922664907
 22
183.3140825627
 32
0.0
 13
120.3922664907
 23
183.3140825627
 33
0.0
  0
LINE
  5
2A1
330
29C
100
AcDbEntity
  8
1
100
AcDbLine
 10
112.5
 20
160.0120825627
 30
0.0
 11
121.9002664907
 21
160.0120825627
 31
0.0
  0
LINE
  5
2A2
330
29C
100
AcDbEntity
  8
1
100
AcDbLine
 10
120.9002664907
 20
160.0120825627
 30
0.0
 11
120.9002664907
 21
153.6620825627
 31
0.0
  0
LINE
  5
2A3
330
29C
100
AcDbEntity
  8
1
100
AcDbLine
 10
120.9002664907
 20
160.0120825627
 30
0.0
 11
120.9002664907
 21
180.0120825627
 31
0.0
  0
LINE
  5
2A4
330
29C
100
AcDbEntity
  8
1
100
AcDbLine
 10
120.9002664907
 20
180.0120825627
 30
0.0
 11
120.9002664907
 21
186.3620825627
 31
0.0
  0
MTEXT
  5
2A5
330
29C
100
AcDbEntity
  8
1
100
AcDbMText
 10
116.3885295761
 20
160.4698913436
 30
0.0
 40
3.5
 41
0.0
 71
     1
 72
     1
  1
20,0000
  7
SLDTEXTSTYLE0
 11
6.123233995736766E-17
 21
1.0
 31
0.0
 73
     1
 44
1.0
  0
ENDBLK
  5
29E
330
29C
100
AcDbEntity
  8
0
100
AcDbBlockEnd
  0
BLOCK
  5
2A8
330
2A7
100
AcDbEntity
  8
0
100
AcDbBlockBegin
  2
_D_21
 70
     0
 10
0.0
 20
0.0
 30
0.0
  3
_D_21
  1

  0
SOLID
  5
2AA
330
2A7
100
AcDbEntity
  8
1
100
AcDbTrace
 10
80.7122356733
 20
160.0120825627
 30
0.0
 11
80.2042356733
 21
156.7100825627
 31
0.0
 12
81.2202356733
 22
156.7100825627
 32
0.0
 13
81.2202356733
 23
156.7100825627
 33
0.0
  0
SOLID
  5
2AB
330
2A7
100
AcDbEntity
  8
1
100
AcDbTrace
 10
80.7122356733
 20
59.0
 30
0.0
 11
81.2202356733
 21
62.302
 31
0.0
 12
80.2042356733
 22
62.302
 32
0.0
 13
80.2042356733
 23
62.302
 33
0.0
  0
LINE
  5
2AC
330
2A7
100
AcDbEntity
  8
1
100
AcDbLine
 10
80.7122356733
 20
160.0120825627
 30
0.0
 11
80.7122356733
 21
59.0
 31
0.0
  0
MTEXT
  5
2AD
330
2A7
100
AcDbEntity
  8
1
100
AcDbMText
 10
76.2004987587
 20
102.168278304
 30
0.0
 40
3.5
 41
0.0
 71
     1
 72
     1
  1
101,0121
  7
SLDTEXTSTYLE0
 11
-7.044195017643634E-15
 21
1.0
 31
0.0
 73
     1
 44
1.0
  0
ENDBLK
  5
2A9
330
2A7
100
AcDbEntity
  8
0
100
AcDbBlockEnd
  0
ENDSEC
  0
SECTION
  2
ENTITIES
  0
LINE
  5
75
330
1F
100
AcDbEntity
  8
1
100
AcDbLine
 10
59.0
 20
59.0
 30
0.0
 11
64.44
 21
59.0
 31
0.0
  0
LINE
  5
76
330
1F
100
AcDbEntity
  8
1
100
AcDbLine
 10
64.44
 20
59.0
 30
0.0
 11
64.44
 21
56.0
 31
0.0
  0
LINE
  5
77
330
1F
100
AcDbEntity
  8
1
100
AcDbLine
 10
64.44
 20
56.0
 30
0.0
 11
72.89
 21
56.0
 31
0.0
  0
LINE
  5
78
330
1F
100
AcDbEntity
  8
1
100
AcDbLine
 10
72.89
 20
56.0
 30
0.0
 11
72.89
 21
59.0
 31
0.0
  0
LINE
  5
79
330
1F
100
AcDbEntity
  8
1
100
AcDbLine
 10
72.89
 20
59.0
 30
0.0
 11
81.33
 21
59.0
 31
0.0
  0
LINE
  5
7A
330
1F
100
AcDbEntity
  8
1
100
AcDbLine
 10
81.33
 20
59.0
 30
0.0
 11
81.33
 21
56.0
 31
0.0
  0
LINE
  5
7B
330
1F
100
AcDbEntity
  8
1
100
AcDbLine
 10
81.33
 20
56.0
 30
0.0
 11
89.78
 21
56.0
 31
0.0
  0
LINE
  5
7C
330
1F
100
AcDbEntity
  8
1
100
AcDbLine
 10
89.78
 20
56.0
 30
0.0
 11
89.78
 21
59.0
 31
0.0
  0
LINE
  5
7D
330
1F
100
AcDbEntity
  8
1
100
AcDbLine
 10
89.78
 20
59.0
 30
0.0
 11
98.22
 21
59.0
 31
0.0
  0
LINE
  5
7E
330
1F
100
AcDbEntity
  8
1
100
AcDbLine
 10
98.22
 20
59.0
 30
0.0
 11
98.22
 21
56.0
 31
0.0
  0
LINE
  5
7F
330
1F
100
AcDbEntity
  8
1
100
AcDbLine
 10
98.22
 20
56.0
 30
0.0
 11
106.67
 21
56.0
 31
0.0
  0
LINE
  5
80
330
1F
100
AcDbEntity
  8
1
100
AcDbLine
 10
106.67
 20
56.0
 30
0.0
 11
106.67
 21
59.0
 31
0.0
  0
LINE
  5
81
330
1F
100
AcDbEntity
  8
1
100
AcDbLine
 10
106.67
 20
59.0
 30
0.0
 11
115.11
 21
59.0
 31
0.0
  0
LINE
  5
82
330
1F
100
AcDbEntity
  8
1
100
AcDbLine
 10
115.11
 20
59.0
 30
0.0
 11
115.11
 21
56.0
 31
0.0
  0
LINE
  5
83
330
1F
100
AcDbEntity
  8
1
100
AcDbLine
 10
115.11
 20
56.0
 30
0.0
 11
123.56
 21
56.0
 31
0.0
  0
LINE
  5
84
330
1F
100
AcDbEntity
  8
1
100
AcDbLine
 10
123.56
 20
56.0
 30
0.0
 11
123.56
 21
59.0
 31
0.0
  0
LINE
  5
85
330
1F
100
AcDbEntity
  8
1
100
AcDbLine
 10
123.56
 20
59.0
 30
0.0
 11
129.0
 21
59.0
 31
0.0
  0
LINE
  5
86
330
1F
100
AcDbEntity
  8
1
100
AcDbLine
 10
129.0
 20
59.0
 30
0.0
 11
129.0
 21
69.0
 31
0.0
  0
LINE
  5
87
330
1F
100
AcDbEntity
  8
1
100
AcDbLine
 10
129.0
 20
69.0
 30
0.0
 11
132.0
 21
69.0
 31
0.0
  0
LINE
  5
88
330
1F
100
AcDbEntity
  8
1
100
AcDbLine
 10
132.0
 20
69.0
 30
0.0
 11
132.0
 21
79.0
 31
0.0
  0
LINE
  5
89
330
1F
100
AcDbEntity
  8
1
100
AcDbLine
 10
132.0
 20
79.0
 30
0.0
 11
129.0
 21
79.0
 31
0.0
  0
LINE
  5
8A
330
1F
100
AcDbEntity
  8
1
100
AcDbLine
 10
129.0
 20
79.0
 30
0.0
 11
129.0
 21
89.0
 31
0.0
  0
LINE
  5
8B
330
1F
100
AcDbEntity
  8
1
100
AcDbLine
 10
129.0
 20
89.0
 30
0.0
 11
132.0
 21
89.0
 31
0.0
  0
LINE
  5
8C
330
1F
100
AcDbEntity
  8
1
100
AcDbLine
 10
132.0
 20
89.0
 30
0.0
 11
132.0
 21
99.0
 31
0.0
  0
LINE
  5
8D
330
1F
100
AcDbEntity
  8
1
100
AcDbLine
 10
132.0
 20
99.0
 30
0.0
 11
129.0
 21
99.0
 31
0.0
  0
LINE
  5
8E
330
1F
100
AcDbEntity
  8
1
100
AcDbLine
 10
129.0
 20
99.0
 30
0.0
 11
129.0
 21
109.0
 31
0.0
  0
LINE
  5
8F
330
1F
100
AcDbEntity
  8
1
100
AcDbLine
 10
129.0
 20
109.0
 30
0.0
 11
132.0
 21
109.0
 31
0.0
  0
LINE
  5
90
330
1F
100
AcDbEntity
  8
1
100
AcDbLine
 10
132.0
 20
109.0
 30
0.0
 11
132.0
 21
119.0
 31
0.0
  0
LINE
  5
91
330
1F
100
AcDbEntity
  8
1
100
AcDbLine
 10
132.0
 20
119.0
 30
0.0
 11
129.0
 21
119.0
 31
0.0
  0
LINE
  5
92
330
1F
100
AcDbEntity
  8
1
100
AcDbLine
 10
129.0
 20
119.0
 30
0.0
 11
129.0
 21
129.0
 31
0.0
  0
LINE
  5
93
330
1F
100
AcDbEntity
  8
1
100
AcDbLine
 10
129.0
 20
129.0
 30
0.0
 11
132.0
 21
129.0
 31
0.0
  0
LINE
  5
94
330
1F
100
AcDbEntity
  8
1
100
AcDbLine
 10
132.0
 20
129.0
 30
0.0
 11
132.0
 21
139.0
 31
0.0
  0
LINE
  5
95
330
1F
100
AcDbEntity
  8
1
100
AcDbLine
 10
132.0
 20
139.0
 30
0.0
 11
129.0
 21
139.0
 31
0.0
  0
LINE
  5
96
330
1F
100
AcDbEntity
  8
1
100
AcDbLine
 10
129.0
 20
139.0
 30
0.0
 11
129.0
 21
149.0
 31
0.0
  0
LINE
  5
97
330
1F
100
AcDbEntity
  8
1
100
AcDbLine
 10
129.0
 20
149.0
 30
0.0
 11
132.0
 21
149.0
 31
0.0
  0
LINE
  5
98
330
1F
100
AcDbEntity
  8
1
100
AcDbLine
 10
132.0
 20
149.0
 30
0.0
 11
132.0
 21
159.0
 31
0.0
  0
LINE
  5
99
330
1F
100
AcDbEntity
  8
1
100
AcDbLine
 10
132.0
 20
159.0
 30
0.0
 11
129.0
 21
159.0
 31
0.0
  0
LINE
  5
9A
330
1F
100
AcDbEntity
  8
1
100
AcDbLine
 10
129.0
 20
159.0
 30
0.0
 11
129.0
 21
169.0
 31
0.0
  0
LINE
  5
9B
330
1F
100
AcDbEntity
  8
1
100
AcDbLine
 10
129.0
 20
169.0
 30
0.0
 11
132.0
 21
169.0
 31
0.0
  0
LINE
  5
9C
330
1F
100
AcDbEntity
  8
1
100
AcDbLine
 10
132.0
 20
169.0
 30
0.0
 11
132.0
 21
179.0
 31
0.0
  0
LINE
  5
9D
330
1F
100
AcDbEntity
  8
1
100
AcDbLine
 10
132.0
 20
179.0
 30
0.0
 11
129.0
 21
179.0
 31
0.0
  0
LINE
  5
9E
330
1F
100
AcDbEntity
  8
1
100
AcDbLine
 10
129.0
 20
179.0
 30
0.0
 11
129.0
 21
189.0
 31
0.0
  0
LINE
  5
9F
330
1F
100
AcDbEntity
  8
1
100
AcDbLine
 10
129.0
 20
189.0
 30
0.0
 11
132.0
 21
189.0
 31
0.0
  0
LINE
  5
A0
330
1F
100
AcDbEntity
  8
1
100
AcDbLine
 10
132.0
 20
189.0
 30
0.0
 11
132.0
 21
199.0
 31
0.0
  0
LINE
  5
A1
330
1F
100
AcDbEntity
  8
1
100
AcDbLine
 10
132.0
 20
199.0
 30
0.0
 11
129.0
 21
199.0
 31
0.0
  0
LINE
  5
A2
330
1F
100
AcDbEntity
  8
1
100
AcDbLine
 10
129.0
 20
199.0
 30
0.0
 11
129.0
 21
209.0
 31
0.0
  0
LINE
  5
A3
330
1F
100
AcDbEntity
  8
1
100
AcDbLine
 10
129.0
 20
209.0
 30
0.0
 11
132.0
 21
209.0
 31
0.0
  0
LINE
  5
A4
330
1F
100
AcDbEntity
  8
1
100
AcDbLine
 10
132.0
 20
209.0
 30
0.0
 11
132.0
 21
219.0
 31
0.0
  0
LINE
  5
A5
330
1F
100
AcDbEntity
  8
1
100
AcDbLine
 10
132.0
 20
219.0
 30
0.0
 11
129.0
 21
219.0
 31
0.0
  0
LINE
  5
A6
330
1F
100
AcDbEntity
  8
1
100
AcDbLine
 10
129.0
 20
219.0
 30
0.0
 11
129.0
 21
229.0
 31
0.0
  0
LINE
  5
A7
330
1F
100
AcDbEntity
  8
1
100
AcDbLine
 10
129.0
 20
229.0
 30
0.0
 11
123.56
 21
229.0
 31
0.0
  0
LINE
  5
A8
330
1F
100
AcDbEntity
  8
1
100
AcDbLine
 10
123.56
 20
229.0
 30
0.0
 11
123.56
 21
232.0
 31
0.0
  0
LINE
  5
A9
330
1F
100
AcDbEntity
  8
1
100
AcDbLine
 10
123.56
 20
232.0
 30
0.0
 11
115.11
 21
232.0
 31
0.0
  0
LINE
  5
AA
330
1F
100
AcDbEntity
  8
1
100
AcDbLine
 10
115.11
 20
232.0
 30
0.0
 11
115.11
 21
229.0
 31
0.0
  0
LINE
  5
AB
330
1F
100
AcDbEntity
  8
1
100
AcDbLine
 10
115.11
 20
229.0
 30
0.0
 11
106.67
 21
229.0
 31
0.0
  0
LINE
  5
AC
330
1F
100
AcDbEntity
  8
1
100
AcDbLine
 10
106.67
 20
229.0
 30
0.0
 11
106.67
 21
232.0
 31
0.0
  0
LINE
  5
AD
330
1F
100
AcDbEntity
  8
1
100
AcDbLine
 10
106.67
 20
232.0
 30
0.0
 11
98.22
 21
232.0
 31
0.0
  0
LINE
  5
AE
330
1F
100
AcDbEntity
  8
1
100
AcDbLine
 10
98.22
 20
232.0
 30
0.0
 11
98.22
 21
229.0
 31
0.0
  0
LINE
  5
AF
330
1F
100
AcDbEntity
  8
1
100
AcDbLine
 10
98.22
 20
229.0
 30
0.0
 11
89.78
 21
229.0
 31
0.0
  0
LINE
  5
B0
330
1F
100
AcDbEntity
  8
1
100
AcDbLine
 10
89.78
 20
229.0
 30
0.0
 11
89.78
 21
232.0
 31
0.0
  0
LINE
  5
B1
330
1F
100
AcDbEntity
  8
1
100
AcDbLine
 10
89.78
 20
232.0
 30
0.0
 11
81.33
 21
232.0
 31
0.0
  0
LINE
  5
B2
330
1F
100
AcDbEntity
  8
1
100
AcDbLine
 10
81.33
 20
232.0
 30
0.0
 11
81.33
 21
229.0
 31
0.0
  0
LINE
  5
B3
330
1F
100
AcDbEntity
  8
1
100
AcDbLine
 10
81.33
 20
229.0
 30
0.0
 11
72.89
 21
229.0
 31
0.0
  0
LINE
  5
B4
330
1F
100
AcDbEntity
  8
1
100
AcDbLine
 10
72.89
 20
229.0
 30
0.0
 11
72.89
 21
232.0
 31
0.0
  0
LINE
  5
B5
330
1F
100
AcDbEntity
  8
1
100
AcDbLine
 10
72.89
 20
232.0
 30
0.0
 11
64.44
 21
232.0
 31
0.0
  0
LINE
  5
B6
330
1F
100
AcDbEntity
  8
1
100
AcDbLine
 10
64.44
 20
232.0
 30
0.0
 11
64.44
 21
229.0
 31
0.0
  0
LINE
  5
B7
330
1F
100
AcDbEntity
  8
1
100
AcDbLine
 10
64.44
 20
229.0
 30
0.0
 11
59.0
 21
229.0
 31
0.0
  0
LINE
  5
B8
330
1F
100
AcDbEntity
  8
1
100
AcDbLine
 10
59.0
 20
229.0
 30
0.0
 11
59.0
 21
219.0
 31
0.0
  0
LINE
  5
B9
330
1F
100
AcDbEntity
  8
1
100
AcDbLine
 10
59.0
 20
219.0
 30
0.0
 11
56.0
 21
219.0
 31
0.0
  0
LINE
  5
BA
330
1F
100
AcDbEntity
  8
1
100
AcDbLine
 10
56.0
 20
219.0
 30
0.0
 11
56.0
 21
209.0
 31
0.0
  0
LINE
  5
BB
330
1F
100
AcDbEntity
  8
1
100
AcDbLine
 10
56.0
 20
209.0
 30
0.0
 11
59.0
 21
209.0
 31
0.0
  0
LINE
  5
BC
330
1F
100
AcDbEntity
  8
1
100
AcDbLine
 10
59.0
 20
209.0
 30
0.0
 11
59.0
 21
199.0
 31
0.0
  0
LINE
  5
BD
330
1F
100
AcDbEntity
  8
1
100
AcDbLine
 10
59.0
 20
199.0
 30
0.0
 11
56.0
 21
199.0
 31
0.0
  0
LINE
  5
BE
330
1F
100
AcDbEntity
  8
1
100
AcDbLine
 10
56.0
 20
199.0
 30
0.0
 11
56.0
 21
189.0
 31
0.0
  0
LINE
  5
BF
330
1F
100
AcDbEntity
  8
1
100
AcDbLine
 10
56.0
 20
189.0
 30
0.0
 11
59.0
 21
189.0
 31
0.0
  0
LINE
  5
C0
330
1F
100
AcDbEntity
  8
1
100
AcDbLine
 10
59.0
 20
189.0
 30
0.0
 11
59.0
 21
179.0
 31
0.0
  0
LINE
  5
C1
330
1F
100
AcDbEntity
  8
1
100
AcDbLine
 10
59.0
 20
179.0
 30
0.0
 11
56.0
 21
179.0
 31
0.0
  0
LINE
  5
C2
330
1F
100
AcDbEntity
  8
1
100
AcDbLine
 10
56.0
 20
179.0
 30
0.0
 11
56.0
 21
169.0
 31
0.0
  0
LINE
  5
C3
330
1F
100
AcDbEntity
  8
1
100
AcDbLine
 10
56.0
 20
169.0
 30
0.0
 11
59.0
 21
169.0
 31
0.0
  0
LINE
  5
C4
330
1F
100
AcDbEntity
  8
1
100
AcDbLine
 10
59.0
 20
169.0
 30
0.0
 11
59.0
 21
159.0
 31
0.0
  0
LINE
  5
C5
330
1F
100
AcDbEntity
  8
1
100
AcDbLine
 10
59.0
 20
159.0
 30
0.0
 11
56.0
 21
159.0
 31
0.0
  0
LINE
  5
C6
330
1F
100
AcDbEntity
  8
1
100
AcDbLine
 10
56.0
 20
159.0
 30
0.0
 11
56.0
 21
149.0
 31
0.0
  0
LINE
  5
C7
330
1F
100
AcDbEntity
  8
1
100
AcDbLine
 10
56.0
 20
149.0
 30
0.0
 11
59.0
 21
149.0
 31
0.0
  0
LINE
  5
C8
330
1F
100
AcDbEntity
  8
1
100
AcDbLine
 10
59.0
 20
149.0
 30
0.0
 11
59.0
 21
139.0
 31
0.0
  0
LINE
  5
C9
330
1F
100
AcDbEntity
  8
1
100
AcDbLine
 10
59.0
 20
139.0
 30
0.0
 11
56.0
 21
139.0
 31
0.0
  0
LINE
  5
CA
330
1F
100
AcDbEntity
  8
1
100
AcDbLine
 10
56.0
 20
139.0
 30
0.0
 11
56.0
 21
129.0
 31
0.0
  0
LINE
  5
CB
330
1F
100
AcDbEntity
  8
1
100
AcDbLine
 10
56.0
 20
129.0
 30
0.0
 11
59.0
 21
129.0
 31
0.0
  0
LINE
  5
CC
330
1F
100
AcDbEntity
  8
1
100
AcDbLine
 10
59.0
 20
129.0
 30
0.0
 11
59.0
 21
119.0
 31
0.0
  0
LINE
  5
CD
330
1F
100
AcDbEntity
  8
1
100
AcDbLine
 10
59.0
 20
119.0
 30
0.0
 11
56.0
 21
119.0
 31
0.0
  0
LINE
  5
CE
330
1F
100
AcDbEntity
  8
1
100
AcDbLine
 10
56.0
 20
119.0
 30
0.0
 11
56.0
 21
109.0
 31
0.0
  0
LINE
  5
CF
330
1F
100
AcDbEntity
  8
1
100
AcDbLine
 10
56.0
 20
109.0
 30
0.0
 11
59.0
 21
109.0
 31
0.0
  0
LINE
  5
D0
330
1F
100
AcDbEntity
  8
1
100
AcDbLine
 10
59.0
 20
109.0
 30
0.0
 11
59.0
 21
99.0
 31
0.0
  0
LINE
  5
D1
330
1F
100
AcDbEntity
  8
1
100
AcDbLine
 10
59.0
 20
99.0
 30
0.0
 11
56.0
 21
99.0
 31
0.0
  0
LINE
  5
D2
330
1F
100
AcDbEntity
  8
1
100
AcDbLine
 10
56.0
 20
99.0
 30
0.0
 11
56.0
 21
89.0
 31
0.0
  0
LINE
  5
D3
330
1F
100
AcDbEntity
  8
1
100
AcDbLine
 10
56.0
 20
89.0
 30
0.0
 11
59.0
 21
89.0
 31
0.0
  0
LINE
  5
D4
330
1F
100
AcDbEntity
  8
1
100
AcDbLine
 10
59.0
 20
89.0
 30
0.0
 11
59.0
 21
79.0
 31
0.0
  0
LINE
  5
D5
330
1F
100
AcDbEntity
  8
1
100
AcDbLine
 10
59.0
 20
79.0
 30
0.0
 11
56.0
 21
79.0
 31
0.0
  0
LINE
  5
D6
330
1F
100
AcDbEntity
  8
1
100
AcDbLine
 10
56.0
 20
79.0
 30
0.0
 11
56.0
 21
69.0
 31
0.0
  0
LINE
  5
D7
330
1F
100
AcDbEntity
  8
1
100
AcDbLine
 10
56.0
 20
69.0
 30
0.0
 11
59.0
 21
69.0
 31
0.0
  0
LINE
  5
D8
330
1F
100
AcDbEntity
  8
1
100
AcDbLine
 10
59.0
 20
69.0
 30
0.0
 11
59.0
 21
59.0
 31
0.0
  0
LINE
  5
D9
330
1F
100
AcDbEntity
  8
1
100
AcDbLine
 10
58.0298526998
 20
0.0114204771
 30
0.0
 11
128.0298526998
 21
0.0114204771
 31
0.0
  0
LINE
  5
DA
330
1F
100
AcDbEntity
  8
1
100
AcDbLine
 10
128.0298526998
 20
0.0114204771
 30
0.0
 11
131.0298526998
 21
0.0114204771
 31
0.0
  0
LINE
  5
DB
330
1F
100
AcDbEntity
  8
1
100
AcDbLine
 10
131.0298526998
 20
0.0114204771
 30
0.0
 11
131.0298526998
 21
7.5814204771
 31
0.0
  0
LINE
  5
DC
330
1F
100
AcDbEntity
  8
1
100
AcDbLine
 10
131.0298526998
 20
7.5814204771
 30
0.0
 11
128.0298526998
 21
7.5814204771
 31
0.0
  0
LINE
  5
DD
330
1F
100
AcDbEntity
  8
1
100
AcDbLine
 10
128.0298526998
 20
7.5814204771
 30
0.0
 11
128.0298526998
 21
15.1514204771
 31
0.0
  0
LINE
  5
DE
330
1F
100
AcDbEntity
  8
1
100
AcDbLine
 10
128.0298526998
 20
15.1514204771
 30
0.0
 11
131.0298526998
 21
15.1514204771
 31
0.0
  0
LINE
  5
DF
330
1F
100
AcDbEntity
  8
1
100
AcDbLine
 10
131.0298526998
 20
15.1514204771
 30
0.0
 11
131.0298526998
 21
22.7214204771
 31
0.0
  0
LINE
  5
E0
330
1F
100
AcDbEntity
  8
1
100
AcDbLine
 10
131.0298526998
 20
22.7214204771
 30
0.0
 11
128.0298526998
 21
22.7214204771
 31
0.0
  0
LINE
  5
E1
330
1F
100
AcDbEntity
  8
1
100
AcDbLine
 10
128.0298526998
 20
22.7214204771
 30
0.0
 11
128.0298526998
 21
30.3014204771
 31
0.0
  0
LINE
  5
E2
330
1F
100
AcDbEntity
  8
1
100
AcDbLine
 10
128.0298526998
 20
30.3014204771
 30
0.0
 11
131.0298526998
 21
30.3014204771
 31
0.0
  0
LINE
  5
E3
330
1F
100
AcDbEntity
  8
1
100
AcDbLine
 10
131.0298526998
 20
30.3014204771
 30
0.0
 11
131.0298526998
 21
37.8714204771
 31
0.0
  0
LINE
  5
E4
330
1F
100
AcDbEntity
  8
1
100
AcDbLine
 10
131.0298526998
 20
37.8714204771
 30
0.0
 11
128.0298526998
 21
37.8714204771
 31
0.0
  0
LINE
  5
E5
330
1F
100
AcDbEntity
  8
1
100
AcDbLine
 10
128.0298526998
 20
37.8714204771
 30
0.0
 11
128.0298526998
 21
45.4414204771
 31
0.0
  0
LINE
  5
E6
330
1F
100
AcDbEntity
  8
1
100
AcDbLine
 10
128.0298526998
 20
45.4414204771
 30
0.0
 11
131.0298526998
 21
45.4414204771
 31
0.0
  0
LINE
  5
E7
330
1F
100
AcDbEntity
  8
1
100
AcDbLine
 10
131.0298526998
 20
45.4414204771
 30
0.0
 11
131.0298526998
 21
53.0114204771
 31
0.0
  0
LINE
  5
E8
330
1F
100
AcDbEntity
  8
1
100
AcDbLine
 10
131.0298526998
 20
53.0114204771
 30
0.0
 11
123.9673510472
 21
53.0114204771
 31
0.0
  0
LINE
  5
E9
330
1F
100
AcDbEntity
  8
1
100
AcDbLine
 10
123.9673510472
 20
53.0114204771
 30
0.0
 11
123.9673510472
 21
50.0114204771
 31
0.0
  0
LINE
  5
EA
330
1F
100
AcDbEntity
  8
1
100
AcDbLine
 10
123.9673510472
 20
50.0114204771
 30
0.0
 11
115.5173510472
 21
50.0114204771
 31
0.0
  0
LINE
  5
EB
330
1F
100
AcDbEntity
  8
1
100
AcDbLine
 10
115.5173510472
 20
50.0114204771
 30
0.0
 11
115.5173510472
 21
53.0114204771
 31
0.0
  0
LINE
  5
EC
330
1F
100
AcDbEntity
  8
1
100
AcDbLine
 10
115.5173510472
 20
53.0114204771
 30
0.0
 11
107.0773510472
 21
53.0114204771
 31
0.0
  0
LINE
  5
ED
330
1F
100
AcDbEntity
  8
1
100
AcDbLine
 10
107.0773510472
 20
53.0114204771
 30
0.0
 11
107.0773510472
 21
50.0114204771
 31
0.0
  0
LINE
  5
EE
330
1F
100
AcDbEntity
  8
1
100
AcDbLine
 10
107.0773510472
 20
50.0114204771
 30
0.0
 11
98.6273510472
 21
50.0114204771
 31
0.0
  0
LINE
  5
EF
330
1F
100
AcDbEntity
  8
1
100
AcDbLine
 10
98.6273510472
 20
50.0114204771
 30
0.0
 11
98.6273510472
 21
53.0114204771
 31
0.0
  0
LINE
  5
F0
330
1F
100
AcDbEntity
  8
1
100
AcDbLine
 10
98.6273510472
 20
53.0114204771
 30
0.0
 11
90.1873510472
 21
53.0114204771
 31
0.0
  0
LINE
  5
F1
330
1F
100
AcDbEntity
  8
1
100
AcDbLine
 10
90.1873510472
 20
53.0114204771
 30
0.0
 11
90.1873510472
 21
50.0114204771
 31
0.0
  0
LINE
  5
F2
330
1F
100
AcDbEntity
  8
1
100
AcDbLine
 10
90.1873510472
 20
50.0114204771
 30
0.0
 11
81.7373510472
 21
50.0114204771
 31
0.0
  0
LINE
  5
F3
330
1F
100
AcDbEntity
  8
1
100
AcDbLine
 10
81.7373510472
 20
50.0114204771
 30
0.0
 11
81.7373510472
 21
53.0114204771
 31
0.0
  0
LINE
  5
F4
330
1F
100
AcDbEntity
  8
1
100
AcDbLine
 10
81.7373510472
 20
53.0114204771
 30
0.0
 11
71.9198526998
 21
53.0114204771
 31
0.0
  0
LINE
  5
F5
330
1F
100
AcDbEntity
  8
1
100
AcDbLine
 10
71.9198526998
 20
53.0114204771
 30
0.0
 11
71.9198526998
 21
50.0114204771
 31
0.0
  0
LINE
  5
F6
330
1F
100
AcDbEntity
  8
1
100
AcDbLine
 10
71.9198526998
 20
50.0114204771
 30
0.0
 11
63.4698526998
 21
50.0114204771
 31
0.0
  0
LINE
  5
F7
330
1F
100
AcDbEntity
  8
1
100
AcDbLine
 10
63.4698526998
 20
50.0114204771
 30
0.0
 11
63.4698526998
 21
53.0114204771
 31
0.0
  0
LINE
  5
F8
330
1F
100
AcDbEntity
  8
1
100
AcDbLine
 10
63.4698526998
 20
53.0114204771
 30
0.0
 11
55.0298526998
 21
53.0114204771
 31
0.0
  0
LINE
  5
F9
330
1F
100
AcDbEntity
  8
1
100
AcDbLine
 10
55.0298526998
 20
53.0114204771
 30
0.0
 11
55.0298526998
 21
45.4414204771
 31
0.0
  0
LINE
  5
FA
330
1F
100
AcDbEntity
  8
1
100
AcDbLine
 10
55.0298526998
 20
45.4414204771
 30
0.0
 11
58.0298526998
 21
45.4414204771
 31
0.0
  0
LINE
  5
FB
330
1F
100
AcDbEntity
  8
1
100
AcDbLine
 10
58.0298526998
 20
45.4414204771
 30
0.0
 11
58.0298526998
 21
37.8714204771
 31
0.0
  0
LINE
  5
FC
330
1F
100
AcDbEntity
  8
1
100
AcDbLine
 10
58.0298526998
 20
37.8714204771
 30
0.0
 11
55.0298526998
 21
37.8714204771
 31
0.0
  0
LINE
  5
FD
330
1F
100
AcDbEntity
  8
1
100
AcDbLine
 10
55.0298526998
 20
37.8714204771
 30
0.0
 11
55.0298526998
 21
30.3014204771
 31
0.0
  0
LINE
  5
FE
330
1F
100
AcDbEntity
  8
1
100
AcDbLine
 10
55.0298526998
 20
30.3014204771
 30
0.0
 11
58.0298526998
 21
30.3014204771
 31
0.0
  0
LINE
  5
FF
330
1F
100
AcDbEntity
  8
1
100
AcDbLine
 10
58.0298526998
 20
30.3014204771
 30
0.0
 11
58.0298526998
 21
22.7214204771
 31
0.0
  0
LINE
  5
100
330
1F
100
AcDbEntity
  8
1
100
AcDbLine
 10
58.0298526998
 20
22.7214204771
 30
0.0
 11
55.0298526998
 21
22.7214204771
 31
0.0
  0
LINE
  5
101
330
1F
100
AcDbEntity
  8
1
100
AcDbLine
 10
55.0298526998
 20
22.7214204771
 30
0.0
 11
55.0298526998
 21
15.1514204771
 31
0.0
  0
LINE
  5
102
330
1F
100
AcDbEntity
  8
1
100
AcDbLine
 10
55.0298526998
 20
15.1514204771
 30
0.0
 11
58.0298526998
 21
15.1514204771
 31
0.0
  0
LINE
  5
103
330
1F
100
AcDbEntity
  8
1
100
AcDbLine
 10
58.0298526998
 20
15.1514204771
 30
0.0
 11
58.0298526998
 21
7.5814204771
 31
0.0
  0
LINE
  5
104
330
1F
100
AcDbEntity
  8
1
100
AcDbLine
 10
58.0298526998
 20
7.5814204771
 30
0.0
 11
55.0298526998
 21
7.5814204771
 31
0.0
  0
LINE
  5
105
330
1F
100
AcDbEntity
  8
1
100
AcDbLine
 10
55.0298526998
 20
7.5814204771
 30
0.0
 11
55.0298526998
 21
0.0114204771
 31
0.0
  0
LINE
  5
106
330
1F
100
AcDbEntity
  8
1
100
AcDbLine
 10
55.0298526998
 20
0.0114204771
 30
0.0
 11
58.0298526998
 21
0.0114204771
 31
0.0
  0
LINE
  5
107
330
1F
100
AcDbEntity
  8
1
100
AcDbLine
 10
59.0
 20
288.0
 30
0.0
 11
129.0
 21
288.0
 31
0.0
  0
LINE
  5
108
330
1F
100
AcDbEntity
  8
1
100
AcDbLine
 10
129.0
 20
288.0
 30
0.0
 11
132.0
 21
288.0
 31
0.0
  0
LINE
  5
109
330
1F
100
AcDbEntity
  8
1
100
AcDbLine
 10
132.0
 20
288.0
 30
0.0
 11
132.0
 21
280.43
 31
0.0
  0
LINE
  5
10A
330
1F
100
AcDbEntity
  8
1
100
AcDbLine
 10
132.0
 20
280.43
 30
0.0
 11
129.0
 21
280.43
 31
0.0
  0
LINE
  5
10B
330
1F
100
AcDbEntity
  8
1
100
AcDbLine
 10
129.0
 20
280.43
 30
0.0
 11
129.0
 21
272.86
 31
0.0
  0
LINE
  5
10C
330
1F
100
AcDbEntity
  8
1
100
AcDbLine
 10
129.0
 20
272.86
 30
0.0
 11
132.0
 21
272.86
 31
0.0
  0
LINE
  5
10D
330
1F
100
AcDbEntity
  8
1
100
AcDbLine
 10
132.0
 20
272.86
 30
0.0
 11
132.0
 21
265.29
 31
0.0
  0
LINE
  5
10E
330
1F
100
AcDbEntity
  8
1
100
AcDbLine
 10
132.0
 20
265.29
 30
0.0
 11
129.0
 21
265.29
 31
0.0
  0
LINE
  5
10F
330
1F
100
AcDbEntity
  8
1
100
AcDbLine
 10
129.0
 20
265.29
 30
0.0
 11
129.0
 21
257.71
 31
0.0
  0
LINE
  5
110
330
1F
100
AcDbEntity
  8
1
100
AcDbLine
 10
129.0
 20
257.71
 30
0.0
 11
132.0
 21
257.71
 31
0.0
  0
LINE
  5
111
330
1F
100
AcDbEntity
  8
1
100
AcDbLine
 10
132.0
 20
257.71
 30
0.0
 11
132.0
 21
250.14
 31
0.0
  0
LINE
  5
112
330
1F
100
AcDbEntity
  8
1
100
AcDbLine
 10
132.0
 20
250.14
 30
0.0
 11
129.0
 21
250.14
 31
0.0
  0
LINE
  5
113
330
1F
100
AcDbEntity
  8
1
100
AcDbLine
 10
129.0
 20
250.14
 30
0.0
 11
129.0
 21
242.57
 31
0.0
  0
LINE
  5
114
330
1F
100
AcDbEntity
  8
1
100
AcDbLine
 10
129.0
 20
242.57
 30
0.0
 11
132.0
 21
242.57
 31
0.0
  0
LINE
  5
115
330
1F
100
AcDbEntity
  8
1
100
AcDbLine
 10
132.0
 20
242.57
 30
0.0
 11
132.0
 21
235.0
 31
0.0
  0
LINE
  5
116
330
1F
100
AcDbEntity
  8
1
100
AcDbLine
 10
132.0
 20
235.0
 30
0.0
 11
123.56
 21
235.0
 31
0.0
  0
LINE
  5
117
330
1F
100
AcDbEntity
  8
1
100
AcDbLine
 10
123.56
 20
235.0
 30
0.0
 11
123.56
 21
238.0
 31
0.0
  0
LINE
  5
118
330
1F
100
AcDbEntity
  8
1
100
AcDbLine
 10
123.56
 20
238.0
 30
0.0
 11
115.11
 21
238.0
 31
0.0
  0
LINE
  5
119
330
1F
100
AcDbEntity
  8
1
100
AcDbLine
 10
115.11
 20
238.0
 30
0.0
 11
115.11
 21
235.0
 31
0.0
  0
LINE
  5
11A
330
1F
100
AcDbEntity
  8
1
100
AcDbLine
 10
115.11
 20
235.0
 30
0.0
 11
106.67
 21
235.0
 31
0.0
  0
LINE
  5
11B
330
1F
100
AcDbEntity
  8
1
100
AcDbLine
 10
106.67
 20
235.0
 30
0.0
 11
106.67
 21
238.0
 31
0.0
  0
LINE
  5
11C
330
1F
100
AcDbEntity
  8
1
100
AcDbLine
 10
106.67
 20
238.0
 30
0.0
 11
98.22
 21
238.0
 31
0.0
  0
LINE
  5
11D
330
1F
100
AcDbEntity
  8
1
100
AcDbLine
 10
98.22
 20
238.0
 30
0.0
 11
98.22
 21
235.0
 31
0.0
  0
LINE
  5
11E
330
1F
100
AcDbEntity
  8
1
100
AcDbLine
 10
98.22
 20
235.0
 30
0.0
 11
89.78
 21
235.0
 31
0.0
  0
LINE
  5
11F
330
1F
100
AcDbEntity
  8
1
100
AcDbLine
 10
89.78
 20
235.0
 30
0.0
 11
89.78
 21
238.0
 31
0.0
  0
LINE
  5
120
330
1F
100
AcDbEntity
  8
1
100
AcDbLine
 10
89.78
 20
238.0
 30
0.0
 11
81.33
 21
238.0
 31
0.0
  0
LINE
  5
121
330
1F
100
AcDbEntity
  8
1
100
AcDbLine
 10
81.33
 20
238.0
 30
0.0
 11
81.33
 21
235.0
 31
0.0
  0
LINE
  5
122
330
1F
100
AcDbEntity
  8
1
100
AcDbLine
 10
81.33
 20
235.0
 30
0.0
 11
72.89
 21
235.0
 31
0.0
  0
LINE
  5
123
330
1F
100
AcDbEntity
  8
1
100
AcDbLine
 10
72.89
 20
235.0
 30
0.0
 11
72.89
 21
238.0
 31
0.0
  0
LINE
  5
124
330
1F
100
AcDbEntity
  8
1
100
AcDbLine
 10
72.89
 20
238.0
 30
0.0
 11
64.44
 21
238.0
 31
0.0
  0
LINE
  5
125
330
1F
100
AcDbEntity
  8
1
100
AcDbLine
 10
64.44
 20
238.0
 30
0.0
 11
64.44
 21
235.0
 31
0.0
  0
LINE
  5
126
330
1F
100
AcDbEntity
  8
1
100
AcDbLine
 10
64.44
 20
235.0
 30
0.0
 11
56.0
 21
235.0
 31
0.0
  0
LINE
  5
127
330
1F
100
AcDbEntity
  8
1
100
AcDbLine
 10
56.0
 20
235.0
 30
0.0
 11
56.0
 21
242.57
 31
0.0
  0
LINE
  5
128
330
1F
100
AcDbEntity
  8
1
100
AcDbLine
 10
56.0
 20
242.57
 30
0.0
 11
59.0
 21
242.57
 31
0.0
  0
LINE
  5
129
330
1F
100
AcDbEntity
  8
1
100
AcDbLine
 10
59.0
 20
242.57
 30
0.0
 11
59.0
 21
250.14
 31
0.0
  0
LINE
  5
12A
330
1F
100
AcDbEntity
  8
1
100
AcDbLine
 10
59.0
 20
250.14
 30
0.0
 11
56.0
 21
250.14
 31
0.0
  0
LINE
  5
12B
330
1F
100
AcDbEntity
  8
1
100
AcDbLine
 10
56.0
 20
250.14
 30
0.0
 11
56.0
 21
257.71
 31
0.0
  0
LINE
  5
12C
330
1F
100
AcDbEntity
  8
1
100
AcDbLine
 10
56.0
 20
257.71
 30
0.0
 11
59.0
 21
257.71
 31
0.0
  0
LINE
  5
12D
330
1F
100
AcDbEntity
  8
1
100
AcDbLine
 10
59.0
 20
257.71
 30
0.0
 11
59.0
 21
265.29
 31
0.0
  0
LINE
  5
12E
330
1F
100
AcDbEntity
  8
1
100
AcDbLine
 10
59.0
 20
265.29
 30
0.0
 11
56.0
 21
265.29
 31
0.0
  0
LINE
  5
12F
330
1F
100
AcDbEntity
  8
1
100
AcDbLine
 10
56.0
 20
265.29
 30
0.0
 11
56.0
 21
272.86
 31
0.0
  0
LINE
  5
130
330
1F
100
AcDbEntity
  8
1
100
AcDbLine
 10
56.0
 20
272.86
 30
0.0
 11
59.0
 21
272.86
 31
0.0
  0
LINE
  5
131
330
1F
100
AcDbEntity
  8
1
100
AcDbLine
 10
59.0
 20
272.86
 30
0.0
 11
59.0
 21
280.43
 31
0.0
  0
LINE
  5
132
330
1F
100
AcDbEntity
  8
1
100
AcDbLine
 10
59.0
 20
280.43
 30
0.0
 11
56.0
 21
280.43
 31
0.0
  0
LINE
  5
133
330
1F
100
AcDbEntity
  8
1
100
AcDbLine
 10
56.0
 20
280.43
 30
0.0
 11
56.0
 21
288.0
 31
0.0
  0
LINE
  5
134
330
1F
100
AcDbEntity
  8
1
100
AcDbLine
 10
56.0
 20
288.0
 30
0.0
 11
59.0
 21
288.0
 31
0.0
  0
LINE
  5
135
330
1F
100
AcDbEntity
  8
1
100
AcDbLine
 10
0.0
 20
59.0
 30
0.0
 11
0.0
 21
229.0
 31
0.0
  0
LINE
  5
136
330
1F
100
AcDbEntity
  8
1
100
AcDbLine
 10
0.0
 20
229.0
 30
0.0
 11
7.57
 21
229.0
 31
0.0
  0
LINE
  5
137
330
1F
100
AcDbEntity
  8
1
100
AcDbLine
 10
7.57
 20
229.0
 30
0.0
 11
7.57
 21
232.0
 31
0.0
  0
LINE
  5
138
330
1F
100
AcDbEntity
  8
1
100
AcDbLine
 10
7.57
 20
232.0
 30
0.0
 11
15.14
 21
232.0
 31
0.0
  0
LINE
  5
139
330
1F
100
AcDbEntity
  8
1
100
AcDbLine
 10
15.14
 20
232.0
 30
0.0
 11
15.14
 21
229.0
 31
0.0
  0
LINE
  5
13A
330
1F
100
AcDbEntity
  8
1
100
AcDbLine
 10
15.14
 20
229.0
 30
0.0
 11
22.71
 21
229.0
 31
0.0
  0
LINE
  5
13B
330
1F
100
AcDbEntity
  8
1
100
AcDbLine
 10
22.71
 20
229.0
 30
0.0
 11
22.71
 21
232.0
 31
0.0
  0
LINE
  5
13C
330
1F
100
AcDbEntity
  8
1
100
AcDbLine
 10
22.71
 20
232.0
 30
0.0
 11
30.29
 21
232.0
 31
0.0
  0
LINE
  5
13D
330
1F
100
AcDbEntity
  8
1
100
AcDbLine
 10
30.29
 20
232.0
 30
0.0
 11
30.29
 21
229.0
 31
0.0
  0
LINE
  5
13E
330
1F
100
AcDbEntity
  8
1
100
AcDbLine
 10
30.29
 20
229.0
 30
0.0
 11
37.86
 21
229.0
 31
0.0
  0
LINE
  5
13F
330
1F
100
AcDbEntity
  8
1
100
AcDbLine
 10
37.86
 20
229.0
 30
0.0
 11
37.86
 21
232.0
 31
0.0
  0
LINE
  5
140
330
1F
100
AcDbEntity
  8
1
100
AcDbLine
 10
37.86
 20
232.0
 30
0.0
 11
45.43
 21
232.0
 31
0.0
  0
LINE
  5
141
330
1F
100
AcDbEntity
  8
1
100
AcDbLine
 10
45.43
 20
232.0
 30
0.0
 11
45.43
 21
229.0
 31
0.0
  0
LINE
  5
142
330
1F
100
AcDbEntity
  8
1
100
AcDbLine
 10
45.43
 20
229.0
 30
0.0
 11
53.0
 21
229.0
 31
0.0
  0
LINE
  5
143
330
1F
100
AcDbEntity
  8
1
100
AcDbLine
 10
53.0
 20
229.0
 30
0.0
 11
53.0
 21
219.0
 31
0.0
  0
LINE
  5
144
330
1F
100
AcDbEntity
  8
1
100
AcDbLine
 10
53.0
 20
219.0
 30
0.0
 11
50.0
 21
219.0
 31
0.0
  0
LINE
  5
145
330
1F
100
AcDbEntity
  8
1
100
AcDbLine
 10
50.0
 20
219.0
 30
0.0
 11
50.0
 21
209.0
 31
0.0
  0
LINE
  5
146
330
1F
100
AcDbEntity
  8
1
100
AcDbLine
 10
50.0
 20
209.0
 30
0.0
 11
53.0
 21
209.0
 31
0.0
  0
LINE
  5
147
330
1F
100
AcDbEntity
  8
1
100
AcDbLine
 10
53.0
 20
209.0
 30
0.0
 11
53.0
 21
199.0
 31
0.0
  0
LINE
  5
148
330
1F
100
AcDbEntity
  8
1
100
AcDbLine
 10
53.0
 20
199.0
 30
0.0
 11
50.0
 21
199.0
 31
0.0
  0
LINE
  5
149
330
1F
100
AcDbEntity
  8
1
100
AcDbLine
 10
50.0
 20
199.0
 30
0.0
 11
50.0
 21
189.0
 31
0.0
  0
LINE
  5
14A
330
1F
100
AcDbEntity
  8
1
100
AcDbLine
 10
50.0
 20
189.0
 30
0.0
 11
53.0
 21
189.0
 31
0.0
  0
LINE
  5
14B
330
1F
100
AcDbEntity
  8
1
100
AcDbLine
 10
53.0
 20
189.0
 30
0.0
 11
53.0
 21
179.0
 31
0.0
  0
LINE
  5
14C
330
1F
100
AcDbEntity
  8
1
100
AcDbLine
 10
53.0
 20
179.0
 30
0.0
 11
50.0
 21
179.0
 31
0.0
  0
LINE
  5
14D
330
1F
100
AcDbEntity
  8
1
100
AcDbLine
 10
50.0
 20
179.0
 30
0.0
 11
50.0
 21
169.0
 31
0.0
  0
LINE
  5
14E
330
1F
100
AcDbEntity
  8
1
100
AcDbLine
 10
50.0
 20
169.0
 30
0.0
 11
53.0
 21
169.0
 31
0.0
  0
LINE
  5
14F
330
1F
100
AcDbEntity
  8
1
100
AcDbLine
 10
53.0
 20
169.0
 30
0.0
 11
53.0
 21
159.0
 31
0.0
  0
LINE
  5
150
330
1F
100
AcDbEntity
  8
1
100
AcDbLine
 10
53.0
 20
159.0
 30
0.0
 11
50.0
 21
159.0
 31
0.0
  0
LINE
  5
151
330
1F
100
AcDbEntity
  8
1
100
AcDbLine
 10
50.0
 20
159.0
 30
0.0
 11
50.0
 21
149.0
 31
0.0
  0
LINE
  5
152
330
1F
100
AcDbEntity
  8
1
100
AcDbLine
 10
50.0
 20
149.0
 30
0.0
 11
53.0
 21
149.0
 31
0.0
  0
LINE
  5
153
330
1F
100
AcDbEntity
  8
1
100
AcDbLine
 10
53.0
 20
149.0
 30
0.0
 11
53.0
 21
139.0
 31
0.0
  0
LINE
  5
154
330
1F
100
AcDbEntity
  8
1
100
AcDbLine
 10
53.0
 20
139.0
 30
0.0
 11
50.0
 21
139.0
 31
0.0
  0
LINE
  5
155
330
1F
100
AcDbEntity
  8
1
100
AcDbLine
 10
50.0
 20
139.0
 30
0.0
 11
50.0
 21
129.0
 31
0.0
  0
LINE
  5
156
330
1F
100
AcDbEntity
  8
1
100
AcDbLine
 10
50.0
 20
129.0
 30
0.0
 11
53.0
 21
129.0
 31
0.0
  0
LINE
  5
157
330
1F
100
AcDbEntity
  8
1
100
AcDbLine
 10
53.0
 20
129.0
 30
0.0
 11
53.0
 21
119.0
 31
0.0
  0
LINE
  5
158
330
1F
100
AcDbEntity
  8
1
100
AcDbLine
 10
53.0
 20
119.0
 30
0.0
 11
50.0
 21
119.0
 31
0.0
  0
LINE
  5
159
330
1F
100
AcDbEntity
  8
1
100
AcDbLine
 10
50.0
 20
119.0
 30
0.0
 11
50.0
 21
109.0
 31
0.0
  0
LINE
  5
15A
330
1F
100
AcDbEntity
  8
1
100
AcDbLine
 10
50.0
 20
109.0
 30
0.0
 11
53.0
 21
109.0
 31
0.0
  0
LINE
  5
15B
330
1F
100
AcDbEntity
  8
1
100
AcDbLine
 10
53.0
 20
109.0
 30
0.0
 11
53.0
 21
99.0
 31
0.0
  0
LINE
  5
15C
330
1F
100
AcDbEntity
  8
1
100
AcDbLine
 10
53.0
 20
99.0
 30
0.0
 11
50.0
 21
99.0
 31
0.0
  0
LINE
  5
15D
330
1F
100
AcDbEntity
  8
1
100
AcDbLine
 10
50.0
 20
99.0
 30
0.0
 11
50.0
 21
89.0
 31
0.0
  0
LINE
  5
15E
330
1F
100
AcDbEntity
  8
1
100
AcDbLine
 10
50.0
 20
89.0
 30
0.0
 11
53.0
 21
89.0
 31
0.0
  0
LINE
  5
15F
330
1F
100
AcDbEntity
  8
1
100
AcDbLine
 10
53.0
 20
89.0
 30
0.0
 11
53.0
 21
79.0
 31
0.0
  0
LINE
  5
160
330
1F
100
AcDbEntity
  8
1
100
AcDbLine
 10
53.0
 20
79.0
 30
0.0
 11
50.0
 21
79.0
 31
0.0
  0
LINE
  5
161
330
1F
100
AcDbEntity
  8
1
100
AcDbLine
 10
50.0
 20
79.0
 30
0.0
 11
50.0
 21
69.0
 31
0.0
  0
LINE
  5
162
330
1F
100
AcDbEntity
  8
1
100
AcDbLine
 10
50.0
 20
69.0
 30
0.0
 11
53.0
 21
69.0
 31
0.0
  0
LINE
  5
163
330
1F
100
AcDbEntity
  8
1
100
AcDbLine
 10
53.0
 20
69.0
 30
0.0
 11
53.0
 21
59.0
 31
0.0
  0
LINE
  5
164
330
1F
100
AcDbEntity
  8
1
100
AcDbLine
 10
53.0
 20
59.0
 30
0.0
 11
45.43
 21
59.0
 31
0.0
  0
LINE
  5
165
330
1F
100
AcDbEntity
  8
1
100
AcDbLine
 10
45.43
 20
59.0
 30
0.0
 11
45.43
 21
56.0
 31
0.0
  0
LINE
  5
166
330
1F
100
AcDbEntity
  8
1
100
AcDbLine
 10
45.43
 20
56.0
 30
0.0
 11
37.86
 21
56.0
 31
0.0
  0
LINE
  5
167
330
1F
100
AcDbEntity
  8
1
100
AcDbLine
 10
37.86
 20
56.0
 30
0.0
 11
37.86
 21
59.0
 31
0.0
  0
LINE
  5
168
330
1F
100
AcDbEntity
  8
1
100
AcDbLine
 10
37.86
 20
59.0
 30
0.0
 11
30.29
 21
59.0
 31
0.0
  0
LINE
  5
169
330
1F
100
AcDbEntity
  8
1
100
AcDbLine
 10
30.29
 20
59.0
 30
0.0
 11
30.29
 21
56.0
 31
0.0
  0
LINE
  5
16A
330
1F
100
AcDbEntity
  8
1
100
AcDbLine
 10
30.29
 20
56.0
 30
0.0
 11
22.71
 21
56.0
 31
0.0
  0
LINE
  5
16B
330
1F
100
AcDbEntity
  8
1
100
AcDbLine
 10
22.71
 20
56.0
 30
0.0
 11
22.71
 21
59.0
 31
0.0
  0
LINE
  5
16C
330
1F
100
AcDbEntity
  8
1
100
AcDbLine
 10
22.71
 20
59.0
 30
0.0
 11
15.14
 21
59.0
 31
0.0
  0
LINE
  5
16D
330
1F
100
AcDbEntity
  8
1
100
AcDbLine
 10
15.14
 20
59.0
 30
0.0
 11
15.14
 21
56.0
 31
0.0
  0
LINE
  5
16E
330
1F
100
AcDbEntity
  8
1
100
AcDbLine
 10
15.14
 20
56.0
 30
0.0
 11
7.57
 21
56.0
 31
0.0
  0
LINE
  5
16F
330
1F
100
AcDbEntity
  8
1
100
AcDbLine
 10
7.57
 20
56.0
 30
0.0
 11
7.57
 21
59.0
 31
0.0
  0
LINE
  5
170
330
1F
100
AcDbEntity
  8
1
100
AcDbLine
 10
7.57
 20
59.0
 30
0.0
 11
0.0
 21
59.0
 31
0.0
  0
LINE
  5
171
330
1F
100
AcDbEntity
  8
1
100
AcDbLine
 10
195.6082889994
 20
79.0
 30
0.0
 11
195.6082889994
 21
249.0
 31
0.0
  0
LINE
  5
172
330
1F
100
AcDbEntity
  8
1
100
AcDbLine
 10
195.6082889994
 20
249.0
 30
0.0
 11
188.0382889994
 21
249.0
 31
0.0
  0
LINE
  5
173
330
1F
100
AcDbEntity
  8
1
100
AcDbLine
 10
188.0382889994
 20
249.0
 30
0.0
 11
188.0382889994
 21
252.0
 31
0.0
  0
LINE
  5
174
330
1F
100
AcDbEntity
  8
1
100
AcDbLine
 10
188.0382889994
 20
252.0
 30
0.0
 11
180.4682889994
 21
252.0
 31
0.0
  0
LINE
  5
175
330
1F
100
AcDbEntity
  8
1
100
AcDbLine
 10
180.4682889994
 20
252.0
 30
0.0
 11
180.4682889994
 21
249.0
 31
0.0
  0
LINE
  5
176
330
1F
100
AcDbEntity
  8
1
100
AcDbLine
 10
180.4682889994
 20
249.0
 30
0.0
 11
172.8982889994
 21
249.0
 31
0.0
  0
LINE
  5
177
330
1F
100
AcDbEntity
  8
1
100
AcDbLine
 10
172.8982889994
 20
249.0
 30
0.0
 11
172.8982889994
 21
252.0
 31
0.0
  0
LINE
  5
178
330
1F
100
AcDbEntity
  8
1
100
AcDbLine
 10
172.8982889994
 20
252.0
 30
0.0
 11
165.3182889994
 21
252.0
 31
0.0
  0
LINE
  5
179
330
1F
100
AcDbEntity
  8
1
100
AcDbLine
 10
165.3182889994
 20
252.0
 30
0.0
 11
165.3182889994
 21
249.0
 31
0.0
  0
LINE
  5
17A
330
1F
100
AcDbEntity
  8
1
100
AcDbLine
 10
165.3182889994
 20
249.0
 30
0.0
 11
157.7482889994
 21
249.0
 31
0.0
  0
LINE
  5
17B
330
1F
100
AcDbEntity
  8
1
100
AcDbLine
 10
157.7482889994
 20
249.0
 30
0.0
 11
157.7482889994
 21
252.0
 31
0.0
  0
LINE
  5
17C
330
1F
100
AcDbEntity
  8
1
100
AcDbLine
 10
157.7482889994
 20
252.0
 30
0.0
 11
150.1782889994
 21
252.0
 31
0.0
  0
LINE
  5
17D
330
1F
100
AcDbEntity
  8
1
100
AcDbLine
 10
150.1782889994
 20
252.0
 30
0.0
 11
150.1782889994
 21
249.0
 31
0.0
  0
LINE
  5
17E
330
1F
100
AcDbEntity
  8
1
100
AcDbLine
 10
150.1782889994
 20
249.0
 30
0.0
 11
142.6082889994
 21
249.0
 31
0.0
  0
LINE
  5
17F
330
1F
100
AcDbEntity
  8
1
100
AcDbLine
 10
142.6082889994
 20
249.0
 30
0.0
 11
142.6082889994
 21
239.0
 31
0.0
  0
LINE
  5
180
330
1F
100
AcDbEntity
  8
1
100
AcDbLine
 10
142.6082889994
 20
239.0
 30
0.0
 11
145.6082889994
 21
239.0
 31
0.0
  0
LINE
  5
181
330
1F
100
AcDbEntity
  8
1
100
AcDbLine
 10
145.6082889994
 20
239.0
 30
0.0
 11
145.6082889994
 21
229.0
 31
0.0
  0
LINE
  5
182
330
1F
100
AcDbEntity
  8
1
100
AcDbLine
 10
145.6082889994
 20
229.0
 30
0.0
 11
142.6082889994
 21
229.0
 31
0.0
  0
LINE
  5
183
330
1F
100
AcDbEntity
  8
1
100
AcDbLine
 10
142.6082889994
 20
229.0
 30
0.0
 11
142.6082889994
 21
219.0
 31
0.0
  0
LINE
  5
184
330
1F
100
AcDbEntity
  8
1
100
AcDbLine
 10
142.6082889994
 20
219.0
 30
0.0
 11
145.6082889994
 21
219.0
 31
0.0
  0
LINE
  5
185
330
1F
100
AcDbEntity
  8
1
100
AcDbLine
 10
145.6082889994
 20
219.0
 30
0.0
 11
145.6082889994
 21
209.0
 31
0.0
  0
LINE
  5
186
330
1F
100
AcDbEntity
  8
1
100
AcDbLine
 10
145.6082889994
 20
209.0
 30
0.0
 11
142.6082889994
 21
209.0
 31
0.0
  0
LINE
  5
187
330
1F
100
AcDbEntity
  8
1
100
AcDbLine
 10
142.6082889994
 20
209.0
 30
0.0
 11
142.6082889994
 21
199.0
 31
0.0
  0
LINE
  5
188
330
1F
100
AcDbEntity
  8
1
100
AcDbLine
 10
142.6082889994
 20
199.0
 30
0.0
 11
145.6082889994
 21
199.0
 31
0.0
  0
LINE
  5
189
330
1F
100
AcDbEntity
  8
1
100
AcDbLine
 10
145.6082889994
 20
199.0
 30
0.0
 11
145.6082889994
 21
189.0
 31
0.0
  0
LINE
  5
18A
330
1F
100
AcDbEntity
  8
1
100
AcDbLine
 10
145.6082889994
 20
189.0
 30
0.0
 11
142.6082889994
 21
189.0
 31
0.0
  0
LINE
  5
18B
330
1F
100
AcDbEntity
  8
1
100
AcDbLine
 10
142.6082889994
 20
189.0
 30
0.0
 11
142.6082889994
 21
179.0
 31
0.0
  0
LINE
  5
18C
330
1F
100
AcDbEntity
  8
1
100
AcDbLine
 10
142.6082889994
 20
179.0
 30
0.0
 11
145.6082889994
 21
179.0
 31
0.0
  0
LINE
  5
18D
330
1F
100
AcDbEntity
  8
1
100
AcDbLine
 10
145.6082889994
 20
179.0
 30
0.0
 11
145.6082889994
 21
169.0
 31
0.0
  0
LINE
  5
18E
330
1F
100
AcDbEntity
  8
1
100
AcDbLine
 10
145.6082889994
 20
169.0
 30
0.0
 11
142.6082889994
 21
169.0
 31
0.0
  0
LINE
  5
18F
330
1F
100
AcDbEntity
  8
1
100
AcDbLine
 10
142.6082889994
 20
169.0
 30
0.0
 11
142.6082889994
 21
159.0
 31
0.0
  0
LINE
  5
190
330
1F
100
AcDbEntity
  8
1
100
AcDbLine
 10
142.6082889994
 20
159.0
 30
0.0
 11
145.6082889994
 21
159.0
 31
0.0
  0
LINE
  5
191
330
1F
100
AcDbEntity
  8
1
100
AcDbLine
 10
145.6082889994
 20
159.0
 30
0.0
 11
145.6082889994
 21
149.0
 31
0.0
  0
LINE
  5
192
330
1F
100
AcDbEntity
  8
1
100
AcDbLine
 10
145.6082889994
 20
149.0
 30
0.0
 11
142.6082889994
 21
149.0
 31
0.0
  0
LINE
  5
193
330
1F
100
AcDbEntity
  8
1
100
AcDbLine
 10
142.6082889994
 20
149.0
 30
0.0
 11
142.6082889994
 21
139.0
 31
0.0
  0
LINE
  5
194
330
1F
100
AcDbEntity
  8
1
100
AcDbLine
 10
142.6082889994
 20
139.0
 30
0.0
 11
145.6082889994
 21
139.0
 31
0.0
  0
LINE
  5
195
330
1F
100
AcDbEntity
  8
1
100
AcDbLine
 10
145.6082889994
 20
139.0
 30
0.0
 11
145.6082889994
 21
129.0
 31
0.0
  0
LINE
  5
196
330
1F
100
AcDbEntity
  8
1
100
AcDbLine
 10
145.6082889994
 20
129.0
 30
0.0
 11
142.6082889994
 21
129.0
 31
0.0
  0
LINE
  5
197
330
1F
100
AcDbEntity
  8
1
100
AcDbLine
 10
142.6082889994
 20
129.0
 30
0.0
 11
142.6082889994
 21
119.0
 31
0.0
  0
LINE
  5
198
330
1F
100
AcDbEntity
  8
1
100
AcDbLine
 10
142.6082889994
 20
119.0
 30
0.0
 11
145.6082889994
 21
119.0
 31
0.0
  0
LINE
  5
199
330
1F
100
AcDbEntity
  8
1
100
AcDbLine
 10
145.6082889994
 20
119.0
 30
0.0
 11
145.6082889994
 21
109.0
 31
0.0
  0
LINE
  5
19A
330
1F
100
AcDbEntity
  8
1
100
AcDbLine
 10
145.6082889994
 20
109.0
 30
0.0
 11
142.6082889994
 21
109.0
 31
0.0
  0
LINE
  5
19B
330
1F
100
AcDbEntity
  8
1
100
AcDbLine
 10
142.6082889994
 20
109.0
 30
0.0
 11
142.6082889994
 21
99.0
 31
0.0
  0
LINE
  5
19C
330
1F
100
AcDbEntity
  8
1
100
AcDbLine
 10
142.6082889994
 20
99.0
 30
0.0
 11
145.6082889994
 21
99.0
 31
0.0
  0
LINE
  5
19D
330
1F
100
AcDbEntity
  8
1
100
AcDbLine
 10
145.6082889994
 20
99.0
 30
0.0
 11
145.6082889994
 21
89.0
 31
0.0
  0
LINE
  5
19E
330
1F
100
AcDbEntity
  8
1
100
AcDbLine
 10
145.6082889994
 20
89.0
 30
0.0
 11
142.6082889994
 21
89.0
 31
0.0
  0
LINE
  5
19F
330
1F
100
AcDbEntity
  8
1
100
AcDbLine
 10
142.6082889994
 20
89.0
 30
0.0
 11
142.6082889994
 21
79.0
 31
0.0
  0
LINE
  5
1A0
330
1F
100
AcDbEntity
  8
1
100
AcDbLine
 10
142.6082889994
 20
79.0
 30
0.0
 11
150.1782889994
 21
79.0
 31
0.0
  0
LINE
  5
1A1
330
1F
100
AcDbEntity
  8
1
100
AcDbLine
 10
150.1782889994
 20
79.0
 30
0.0
 11
150.1782889994
 21
76.0
 31
0.0
  0
LINE
  5
1A2
330
1F
100
AcDbEntity
  8
1
100
AcDbLine
 10
150.1782889994
 20
76.0
 30
0.0
 11
157.7482889994
 21
76.0
 31
0.0
  0
LINE
  5
1A3
330
1F
100
AcDbEntity
  8
1
100
AcDbLine
 10
157.7482889994
 20
76.0
 30
0.0
 11
157.7482889994
 21
79.0
 31
0.0
  0
LINE
  5
1A4
330
1F
100
AcDbEntity
  8
1
100
AcDbLine
 10
157.7482889994
 20
79.0
 30
0.0
 11
157.71
 21
79.0
 31
0.0
  0
LINE
  5
1A5
330
1F
100
AcDbEntity
  8
1
100
AcDbLine
 10
157.71
 20
79.0
 30
0.0
 11
157.71
 21
76.0
 31
0.0
  0
LINE
  5
1A6
330
1F
100
AcDbEntity
  8
1
100
AcDbLine
 10
157.71
 20
76.0
 30
0.0
 11
165.29
 21
76.0
 31
0.0
  0
LINE
  5
1A7
330
1F
100
AcDbEntity
  8
1
100
AcDbLine
 10
165.29
 20
76.0
 30
0.0
 11
165.29
 21
79.0
 31
0.0
  0
LINE
  5
1A8
330
1F
100
AcDbEntity
  8
1
100
AcDbLine
 10
165.29
 20
79.0
 30
0.0
 11
172.86
 21
79.0
 31
0.0
  0
LINE
  5
1A9
330
1F
100
AcDbEntity
  8
1
100
AcDbLine
 10
172.86
 20
79.0
 30
0.0
 11
172.86
 21
76.0
 31
0.0
  0
LINE
  5
1AA
330
1F
100
AcDbEntity
  8
1
100
AcDbLine
 10
172.86
 20
76.0
 30
0.0
 11
180.43
 21
76.0
 31
0.0
  0
LINE
  5
1AB
330
1F
100
AcDbEntity
  8
1
100
AcDbLine
 10
180.43
 20
76.0
 30
0.0
 11
180.43
 21
79.0
 31
0.0
  0
LINE
  5
1AC
330
1F
100
AcDbEntity
  8
1
100
AcDbLine
 10
180.43
 20
79.0
 30
0.0
 11
195.6082889994
 21
79.0
 31
0.0
  0
LINE
  5
1AD
330
1F
100
AcDbEntity
  8
1
100
AcDbLine
 10
80.5298526998
 20
40.0114204771
 30
0.0
 11
105.5298526998
 21
40.0114204771
 31
0.0
  0
LINE
  5
1AE
330
1F
100
AcDbEntity
  8
1
100
AcDbLine
 10
80.5298526998
 20
40.0114204771
 30
0.0
 11
80.5298526998
 21
35.0114204771
 31
0.0
  0
LINE
  5
1AF
330
1F
100
AcDbEntity
  8
1
100
AcDbLine
 10
80.5298526998
 20
35.0114204771
 30
0.0
 11
105.5298526998
 21
35.0114204771
 31
0.0
  0
LINE
  5
1B0
330
1F
100
AcDbEntity
  8
1
100
AcDbLine
 10
105.5298526998
 20
40.0114204771
 30
0.0
 11
105.5298526998
 21
35.0114204771
 31
0.0
  0
LINE
  5
1B1
330
1F
100
AcDbEntity
  8
1
100
AcDbLine
 10
147.6082889994
 20
139.0
 30
0.0
 11
155.6082889994
 21
139.0
 31
0.0
  0
LINE
  5
1B2
330
1F
100
AcDbEntity
  8
1
100
AcDbLine
 10
147.6082889994
 20
139.0
 30
0.0
 11
147.6082889994
 21
99.0
 31
0.0
  0
LINE
  5
1B3
330
1F
100
AcDbEntity
  8
1
100
AcDbLine
 10
147.6082889994
 20
99.0
 30
0.0
 11
155.6082889994
 21
99.0
 31
0.0
  0
LINE
  5
1B4
330
1F
100
AcDbEntity
  8
1
100
AcDbLine
 10
155.6082889994
 20
139.0
 30
0.0
 11
155.6082889994
 21
99.0
 31
0.0
  0
LINE
  5
1B5
330
1F
100
AcDbEntity
  8
1
100
AcDbLine
 10
63.0
 20
180.0120825627
 30
0.0
 11
125.0
 21
180.0120825627
 31
0.0
  0
LINE
  5
1B6
330
1F
100
AcDbEntity
  8
1
100
AcDbLine
 10
63.0
 20
180.0120825627
 30
0.0
 11
63.0
 21
173.0120825627
 31
0.0
  0
LINE
  5
1B7
330
1F
100
AcDbEntity
  8
1
100
AcDbLine
 10
63.0
 20
173.0120825627
 30
0.0
 11
125.0
 21
173.0120825627
 31
0.0
  0
LINE
  5
1B8
330
1F
100
AcDbEntity
  8
1
100
AcDbLine
 10
125.0
 20
180.0120825627
 30
0.0
 11
125.0
 21
173.0120825627
 31
0.0
  0
LINE
  5
1B9
330
1F
100
AcDbEntity
  8
1
100
AcDbLine
 10
76.5
 20
167.0120825627
 30
0.0
 11
111.5
 21
167.0120825627
 31
0.0
  0
LINE
  5
1BA
330
1F
100
AcDbEntity
  8
1
100
AcDbLine
 10
76.5
 20
167.0120825627
 30
0.0
 11
76.5
 21
160.0120825627
 31
0.0
  0
LINE
  5
1BB
330
1F
100
AcDbEntity
  8
1
100
AcDbLine
 10
76.5
 20
160.0120825627
 30
0.0
 11
111.5
 21
160.0120825627
 31
0.0
  0
LINE
  5
1BC
330
1F
100
AcDbEntity
  8
1
100
AcDbLine
 10
111.5
 20
167.0120825627
 30
0.0
 11
111.5
 21
160.0120825627
 31
0.0
  0
CIRCLE
  5
1BD
330
1F
100
AcDbEntity
  8
1
100
AcDbCircle
 10
93.0298526998
 20
13.6920872311
 30
0.0
 40
5.000000000000012
  0
DIMENSION
  5
1BE
330
1F
100
AcDbEntity
  8
1
100
AcDbDimension
  2
_D
 10
129.0
 20
314.5749174627
 30
0.0
 11
98.7732470117
 21
314.5749174627
 31
0.0
 70
   160
  1
<>
 71
     2
 42
-1.0
  3
SLDDIMSTYLE0
100
AcDbAlignedDimension
 13
59.0
 23
89.0
 33
0.0
 14
129.0
 24
89.0
 34
0.0
100
AcDbRotatedDimension
  0
DIMENSION
  5
1CA
330
1F
100
AcDbEntity
  8
1
100
AcDbDimension
  2
_D_1
 10
105.5298526998
 20
44.0332654994
 30
0.0
 11
93.4255424562
 21
44.0332654994
 31
0.0
 70
   160
  1
<>
 71
     2
 42
-1.0
  3
SLDDIMSTYLE1
100
AcDbAlignedDimension
 13
80.5298526998
 23
40.0114204771
 33
0.0
 14
105.5298526998
 24
40.0114204771
 34
0.0
100
AcDbRotatedDimension
  0
DIMENSION
  5
1D7
330
1F
100
AcDbEntity
  8
1
100
AcDbDimension
  2
_D_2
 10
113.2038811524
 20
35.0114204771
 30
0.0
 11
113.2038811524
 21
37.044167851
 31
0.0
 70
   160
  1
<>
 71
     2
 42
-1.0
  3
SLDDIMSTYLE1
100
AcDbAlignedDimension
 13
105.5298526998
 23
40.0114204771
 33
0.0
 14
105.5298526998
 24
35.0114204771
 34
0.0
 50
90.0
100
AcDbRotatedDimension
  0
DIMENSION
  5
1E3
330
1F
100
AcDbEntity
  8
1
100
AcDbDimension
  2
_D_3
 10
70.9339270497
 20
40.0114204771
 30
0.0
 11
70.9339270497
 21
43.5107089133
 31
0.0
 70
   160
  1
<>
 71
     2
 42
-1.0
  3
SLDDIMSTYLE1
100
AcDbAlignedDimension
 13
81.7373510472
 23
50.0114204771
 33
0.0
 14
80.5298526998
 24
40.0114204771
 34
0.0
 50
90.0
100
AcDbRotatedDimension
  0
DIMENSION
  5
1EF
330
1F
100
AcDbEntity
  8
1
100
AcDbDimension
  2
_D_4
 10
58.0298526998
 20
21.6629784171
 30
0.0
 11
71.4635970327
 21
21.6629784171
 31
0.0
 70
   160
  1
<>
 71
     2
 42
-1.0
  3
SLDDIMSTYLE1
100
AcDbAlignedDimension
 13
80.5298526998
 23
35.0114204771
 33
0.0
 14
58.0298526998
 24
37.8714204771
 34
0.0
 50
0.0
100
AcDbRotatedDimension
  0
DIMENSION
  5
1FB
330
1F
100
AcDbEntity
  8
1
100
AcDbDimension
  2
_D_5
 10
106.2136678792
 20
18.6920872311
 30
0.0
 11
106.2136678792
 21
8.8184256384
 31
0.0
 70
   160
  1
%%c<>
 71
     2
 42
-1.0
  3
SLDDIMSTYLE1
100
AcDbAlignedDimension
 13
93.0298526998
 23
8.6920872311
 33
0.0
 14
93.0298526998
 24
18.6920872311
 34
0.0
 50
90.0
100
AcDbRotatedDimension
  0
DIMENSION
  5
208
330
1F
100
AcDbEntity
  8
1
100
AcDbDimension
  2
_D_6
 10
128.0298526998
 20
9.8550066938
 30
0.0
 11
116.8221944591
 21
9.8550066938
 31
0.0
 70
   160
  1
<>
 71
     2
 42
-1.0
  3
SLDDIMSTYLE0
100
AcDbAlignedDimension
 13
93.0298526998
 23
13.6920872311
 33
0.0
 14
128.0298526998
 24
7.5814204771
 34
0.0
 50
0.0
100
AcDbRotatedDimension
  0
DIMENSION
  5
211
330
1F
100
AcDbEntity
  8
1
100
AcDbDimension
  2
_D_7
 10
147.6082889994
 20
93.1993374831
 30
0.0
 11
152.029341631
 21
93.1993374831
 31
0.0
 70
   160
  1
<>
 71
     2
 42
-1.0
  3
SLDDIMSTYLE1
100
AcDbAlignedDimension
 13
155.6082889994
 23
119.0
 33
0.0
 14
147.6082889994
 24
99.0
 34
0.0
100
AcDbRotatedDimension
  0
DIMENSION
  5
21D
330
1F
100
AcDbEntity
  8
1
100
AcDbDimension
  2
_D_8
 10
170.167185218
 20
139.0
 30
0.0
 11
170.167185218
 21
120.211902253
 31
0.0
 70
   160
  1
<>
 71
     2
 42
-1.0
  3
SLDDIMSTYLE0
100
AcDbAlignedDimension
 13
151.6082889994
 23
99.0
 33
0.0
 14
155.6082889994
 24
139.0
 34
0.0
 50
90.0
100
AcDbRotatedDimension
  0
DIMENSION
  5
227
330
1F
100
AcDbEntity
  8
1
100
AcDbDimension
  2
_D_9
 10
166.6808103478
 20
79.0
 30
0.0
 11
166.6808103478
 21
89.6058074602
 31
0.0
 70
   160
  1
<>
 71
     2
 42
-1.0
  3
SLDDIMSTYLE1
100
AcDbAlignedDimension
 13
155.6082889994
 23
99.0
 33
0.0
 14
157.7482889994
 24
79.0
 34
0.0
 50
90.0
100
AcDbRotatedDimension
  0
DIMENSION
  5
233
330
1F
100
AcDbEntity
  8
1
100
AcDbDimension
  2
_D_10
 10
195.6082889994
 20
166.0178306724
 30
0.0
 11
173.5868344591
 21
166.0178306724
 31
0.0
 70
   160
  1
<>
 71
     2
 42
-1.0
  3
SLDDIMSTYLE0
100
AcDbAlignedDimension
 13
155.6082889994
 23
139.0
 33
0.0
 14
195.6082889994
 24
249.0
 34
0.0
100
AcDbRotatedDimension
  0
DIMENSION
  5
23C
330
1F
100
AcDbEntity
  8
1
100
AcDbDimension
  2
_D_11
 10
195.6082889994
 20
212.7329521537
 30
0.0
 11
173.5271751325
 21
212.7329521537
 31
0.0
 70
   160
  1
<>
 71
     2
 42
-1.0
  3
SLDDIMSTYLE0
100
AcDbAlignedDimension
 13
145.6082889994
 23
234.0
 33
0.0
 14
195.6082889994
 24
249.0
 34
0.0
100
AcDbRotatedDimension
  0
DIMENSION
  5
245
330
1F
100
AcDbEntity
  8
1
100
AcDbDimension
  2
_D_12
 10
0.0
 20
212.7329521537
 30
0.0
 11
25.4911987239
 21
212.7329521537
 31
0.0
 70
   160
  1
<>
 71
     2
 42
-1.0
  3
SLDDIMSTYLE0
100
AcDbAlignedDimension
 13
50.0
 23
209.0
 33
0.0
 14
0.0
 24
229.0
 34
0.0
100
AcDbRotatedDimension
  0
DIMENSION
  5
24D
330
1F
100
AcDbEntity
  8
1
100
AcDbDimension
  2
_D_13
 10
27.8882778885
 20
0.0114204771
 30
0.0
 11
27.8882778885
 21
25.8954458591
 31
0.0
 70
   160
  1
<>
 71
     2
 42
-1.0
  3
SLDDIMSTYLE0
100
AcDbAlignedDimension
 13
81.7373510472
 23
50.0114204771
 33
0.0
 14
58.0298526998
 24
0.0114204771
 34
0.0
 50
90.0
100
AcDbRotatedDimension
  0
DIMENSION
  5
257
330
1F
100
AcDbEntity
  8
1
100
AcDbDimension
  2
_D_14
 10
125.0
 20
193.9942863957
 30
0.0
 11
88.3239965312
 21
193.9942863957
 31
0.0
 70
   160
  1
<>
 71
     2
 42
-1.0
  3
SLDDIMSTYLE0
100
AcDbAlignedDimension
 13
63.0
 23
180.0120825627
 33
0.0
 14
125.0
 24
180.0120825627
 34
0.0
100
AcDbRotatedDimension
  0
DIMENSION
  5
261
330
1F
100
AcDbEntity
  8
1
100
AcDbDimension
  2
_D_15
 10
30.2707519518
 20
173.0120825627
 30
0.0
 11
30.2707519518
 21
177.5964712466
 31
0.0
 70
   160
  1
<>
 71
     2
 42
-1.0
  3
SLDDIMSTYLE1
100
AcDbAlignedDimension
 13
63.0
 23
180.0120825627
 33
0.0
 14
63.0
 24
173.0120825627
 34
0.0
 50
90.0
100
AcDbRotatedDimension
  0
DIMENSION
  5
26D
330
1F
100
AcDbEntity
  8
1
100
AcDbDimension
  2
_D_16
 10
59.0
 20
159.4608953101
 30
0.0
 11
63.6578284551
 21
159.4608953101
 31
0.0
 70
   160
  1
<>
 71
     2
 42
-1.0
  3
SLDDIMSTYLE1
100
AcDbAlignedDimension
 13
63.0
 23
173.0120825627
 33
0.0
 14
59.0
 24
179.0
 34
0.0
100
AcDbRotatedDimension
  0
DIMENSION
  5
279
330
1F
100
AcDbEntity
  8
1
100
AcDbDimension
  2
_D_17
 10
111.5
 20
141.0361459318
 30
0.0
 11
94.8377891475
 21
141.0361459318
 31
0.0
 70
   160
  1
<>
 71
     2
 42
-1.0
  3
SLDDIMSTYLE0
100
AcDbAlignedDimension
 13
76.5
 23
167.0120825627
 33
0.0
 14
111.5
 24
167.0120825627
 34
0.0
100
AcDbRotatedDimension
  0
DIMENSION
  5
283
330
1F
100
AcDbEntity
  8
1
100
AcDbDimension
  2
_D_18
 10
73.4736300858
 20
160.0120825627
 30
0.0
 11
73.4736300858
 21
164.4985517771
 31
0.0
 70
   160
  1
<>
 71
     2
 42
-1.0
  3
SLDDIMSTYLE1
100
AcDbAlignedDimension
 13
76.5
 23
167.0120825627
 33
0.0
 14
76.5
 24
160.0120825627
 34
0.0
 50
90.0
100
AcDbRotatedDimension
  0
DIMENSION
  5
28F
330
1F
100
AcDbEntity
  8
1
100
AcDbDimension
  2
_D_19
 10
59.0
 20
147.5073825327
 30
0.0
 11
64.4689170967
 21
147.5073825327
 31
0.0
 70
   160
  1
<>
 71
     2
 42
-1.0
  3
SLDDIMSTYLE1
100
AcDbAlignedDimension
 13
76.5
 23
160.0120825627
 33
0.0
 14
59.0
 24
159.0
 34
0.0
100
AcDbRotatedDimension
  0
DIMENSION
  5
29B
330
1F
100
AcDbEntity
  8
1
100
AcDbDimension
  2
_D_20
 10
120.9002664907
 20
180.0120825627
 30
0.0
 11
120.9002664907
 21
168.8747525479
 31
0.0
 70
   160
  1
<>
 71
     2
 42
-1.0
  3
SLDDIMSTYLE1
100
AcDbAlignedDimension
 13
111.5
 23
160.0120825627
 33
0.0
 14
125.0
 24
180.0120825627
 34
0.0
 50
90.0
100
AcDbRotatedDimension
  0
DIMENSION
  5
2A6
330
1F
100
AcDbEntity
  8
1
100
AcDbDimension
  2
_D_21
 10
80.7122356733
 20
59.0
 30
0.0
 11
80.7122356733
 21
111.8661952215
 31
0.0
 70
   160
  1
<>
 71
     2
 42
-1.0
  3
SLDDIMSTYLE0
100
AcDbAlignedDimension
 13
76.5
 23
160.0120825627
 33
0.0
 14
81.33
 24
59.0
 34
0.0
 50
90.0
100
AcDbRotatedDimension
  0
ENDSEC
  0
SECTION
  2
OBJECTS
  0
DICTIONARY
  5
C
330
0
100
AcDbDictionary
281
     1
  3
ACAD_GROUP
350
D
  3
ACAD_LAYOUT
350
1A
  3
ACAD_MLINESTYLE
350
17
  3
ACAD_PLOTSETTINGS
350
19
  3
ACAD_PLOTSTYLENAME
350
E
  3
ACAD_SCALELIST
350
47
  3
DWGPROPS
350
2AE
  0
DICTIONARY
  5
D
102
{ACAD_REACTORS
330
C
102
}
330
C
100
AcDbDictionary
281
     1
  0
DICTIONARY
  5
1A
102
{ACAD_REACTORS
330
C
102
}
330
C
100
AcDbDictionary
281
     1
  3
Layout1
350
1E
  3
Layout2
350
26
  3
Model
350
22
  0
DICTIONARY
  5
17
102
{ACAD_REACTORS
330
C
102
}
330
C
100
AcDbDictionary
281
     1
  3
Standard
350
18
  0
DICTIONARY
  5
19
102
{ACAD_REACTORS
330
C
102
}
330
C
100
AcDbDictionary
281
     1
  0
ACDBDICTIONARYWDFLT
  5
E
102
{ACAD_REACTORS
330
C
102
}
330
C
100
AcDbDictionary
281
     1
  3
Normal
350
F
100
AcDbDictionaryWithDefault
340
F
  0
DICTIONARY
  5
47
102
{ACAD_REACTORS
330
C
102
}
330
C
100
AcDbDictionary
281
     1
  3
A0
350
48
  3
A1
350
49
  3
A2
350
4A
  3
A3
350
4B
  3
A4
350
4C
  3
A5
350
4D
  3
A6
350
4E
  3
A7
350
4F
  3
A8
350
50
  3
A9
350
51
  3
B0
350
52
  3
B1
350
53
  3
B2
350
54
  3
B3
350
55
  3
B4
350
56
  3
B5
350
57
  3
B6
350
58
  3
B7
350
59
  3
B8
350
5A
  3
B9
350
5B
  3
C0
350
5C
  3
C1
350
5D
  3
C2
350
5E
  3
C3
350
5F
  3
C4
350
60
  3
C5
350
61
  3
C6
350
62
  3
C7
350
63
  3
C8
350
64
  3
C9
350
65
  3
D0
350
66
  3
D1
350
67
  3
D2
350
68
  0
XRECORD
  5
2AE
102
{ACAD_REACTORS
330
C
102
}
330
C
100
AcDbXrecord
280
     1
  1
DWGPROPS COOKIE
  2

  3

  4

  6

  7

  8
19.01266-7
  9

300
=
301
=
302
=
303
=
304
=
305
=
306
=
307
=
308
=
309
=
 40
0.0
 41
2459711.859028704
 42
2459711.85903066
  1

 90
        0
  0
LAYOUT
  5
1E
102
{ACAD_REACTORS
330
1A
102
}
330
1A
100
AcDbPlotSettings
  1

  2
none_device
  4

  6

 40
0.0
 41
0.0
 42
0.0
 43
0.0
 44
0.0
 45
0.0
 46
0.0
 47
0.0
 48
0.0
 49
0.0
140
0.0
141
0.0
142
1.0
143
1.0
 70
   688
 72
     1
 73
     0
 74
     5
  7

 75
    16
147
1.0
148
0.0
149
0.0
100
AcDbLayout
  1
Layout1
 70
     1
 71
     1
 10
0.0
 20
0.0
 11
420.0
 21
297.0
 12
0.0
 22
0.0
 32
0.0
 14
1.0000000000E+20
 24
1.0000000000E+20
 34
1.0000000000E+20
 15
-1.0000000000E+20
 25
-1.0000000000E+20
 35
-1.0000000000E+20
146
0.0
 13
0.0
 23
0.0
 33
0.0
 16
1.0
 26
0.0
 36
0.0
 17
0.0
 27
1.0
 37
0.0
 76
     0
330
1B
  0
LAYOUT
  5
26
102
{ACAD_REACTORS
330
1A
102
}
330
1A
100
AcDbPlotSettings
  1

  2
none_device
  4

  6

 40
0.0
 41
0.0
 42
0.0
 43
0.0
 44
0.0
 45
0.0
 46
0.0
 47
0.0
 48
0.0
 49
0.0
140
0.0
141
0.0
142
1.0
143
1.0
 70
   688
 72
     1
 73
     0
 74
     5
  7

 75
    16
147
1.0
148
0.0
149
0.0
100
AcDbLayout
  1
Layout2
 70
     1
 71
     2
 10
0.0
 20
0.0
 11
0.0
 21
0.0
 12
0.0
 22
0.0
 32
0.0
 14
0.0
 24
0.0
 34
0.0
 15
0.0
 25
0.0
 35
0.0
146
0.0
 13
0.0
 23
0.0
 33
0.0
 16
1.0
 26
0.0
 36
0.0
 17
0.0
 27
1.0
 37
0.0
 76
     0
330
23
  0
LAYOUT
  5
22
102
{ACAD_REACTORS
330
1A
102
}
330
1A
100
AcDbPlotSettings
  1

  2
none_device
  4
Letter_(8.50_x_11.00_Inches)
  6

 40
6.35
 41
6.35
 42
6.35000508
 43
6.35000508
 44
215.9
 45
279.4
 46
0.0
 47
0.0
 48
0.0
 49
0.0
140
0.0
141
0.0
142
1.0
143
1.0
 70
  1712
 72
     1
 73
     0
 74
     0
  7

 75
     0
147
1.0
148
0.0
149
0.0
100
AcDbLayout
  1
Model
 70
     1
 71
     0
 10
0.0
 20
0.0
 11
1117.6
 21
863.6
 12
0.0
 22
0.0
 32
0.0
 14
0.0
 24
0.0
 34
0.0
 15
1117.6
 25
863.6
 35
0.0
146
0.0
 13
0.0
 23
0.0
 33
0.0
 16
1.0
 26
0.0
 36
0.0
 17
0.0
 27
1.0
 37
0.0
 76
     0
330
1F
331
29
  0
MLINESTYLE
  5
18
102
{ACAD_REACTORS
330
17
102
}
330
17
100
AcDbMlineStyle
  2
Standard
 70
     0
  3

 62
   256
 51
90.0
 52
90.0
 71
     2
 49
0.5
 62
   256
  6
BYLAYER
 49
-0.5
 62
   256
  6
BYLAYER
  0
ACDBPLACEHOLDER
  5
F
102
{ACAD_REACTORS
330
E
102
}
330
E
  0
SCALE
  5
48
102
{ACAD_REACTORS
330
47
102
}
330
47
100
AcDbScale
 70
     0
300
1:1
140
1.0
141
1.0
290
     1
  0
SCALE
  5
49
102
{ACAD_REACTORS
330
47
102
}
330
47
100
AcDbScale
 70
     0
300
1:2
140
1.0
141
2.0
290
     0
  0
SCALE
  5
4A
102
{ACAD_REACTORS
330
47
102
}
330
47
100
AcDbScale
 70
     0
300
1:4
140
1.0
141
4.0
290
     0
  0
SCALE
  5
4B
102
{ACAD_REACTORS
330
47
102
}
330
47
100
AcDbScale
 70
     0
300
1:5
140
1.0
141
5.0
290
     0
  0
SCALE
  5
4C
102
{ACAD_REACTORS
330
47
102
}
330
47
100
AcDbScale
 70
     0
300
1:8
140
1.0
141
8.0
290
     0
  0
SCALE
  5
4D
102
{ACAD_REACTORS
330
47
102
}
330
47
100
AcDbScale
 70
     0
300
1:10
140
1.0
141
10.0
290
     0
  0
SCALE
  5
4E
102
{ACAD_REACTORS
330
47
102
}
330
47
100
AcDbScale
 70
     0
300
1:16
140
1.0
141
16.0
290
     0
  0
SCALE
  5
4F
102
{ACAD_REACTORS
330
47
102
}
330
47
100
AcDbScale
 70
     0
300
1:20
140
1.0
141
20.0
290
     0
  0
SCALE
  5
50
102
{ACAD_REACTORS
330
47
102
}
330
47
100
AcDbScale
 70
     0
300
1:30
140
1.0
141
30.0
290
     0
  0
SCALE
  5
51
102
{ACAD_REACTORS
330
47
102
}
330
47
100
AcDbScale
 70
     0
300
1:40
140
1.0
141
40.0
290
     0
  0
SCALE
  5
52
102
{ACAD_REACTORS
330
47
102
}
330
47
100
AcDbScale
 70
     0
300
1:50
140
1.0
141
50.0
290
     0
  0
SCALE
  5
53
102
{ACAD_REACTORS
330
47
102
}
330
47
100
AcDbScale
 70
     0
300
1:100
140
1.0
141
100.0
290
     0
  0
SCALE
  5
54
102
{ACAD_REACTORS
330
47
102
}
330
47
100
AcDbScale
 70
     0
300
2:1
140
2.0
141
1.0
290
     0
  0
SCALE
  5
55
102
{ACAD_REACTORS
330
47
102
}
330
47
100
AcDbScale
 70
     0
300
4:1
140
4.0
141
1.0
290
     0
  0
SCALE
  5
56
102
{ACAD_REACTORS
330
47
102
}
330
47
100
AcDbScale
 70
     0
300
8:1
140
8.0
141
1.0
290
     0
  0
SCALE
  5
57
102
{ACAD_REACTORS
330
47
102
}
330
47
100
AcDbScale
 70
     0
300
10:1
140
10.0
141
1.0
290
     0
  0
SCALE
  5
58
102
{ACAD_REACTORS
330
47
102
}
330
47
100
AcDbScale
 70
     0
300
100:1
140
100.0
141
1.0
290
     0
  0
SCALE
  5
59
102
{ACAD_REACTORS
330
47
102
}
330
47
100
AcDbScale
 70
     0
300
1/128" = 1'-0"
140
0.0078125
141
12.0
290
     0
  0
SCALE
  5
5A
102
{ACAD_REACTORS
330
47
102
}
330
47
100
AcDbScale
 70
     0
300
1/64" = 1'-0"
140
0.015625
141
12.0
290
     0
  0
SCALE
  5
5B
102
{ACAD_REACTORS
330
47
102
}
330
47
100
AcDbScale
 70
     0
300
1/32" = 1'-0"
140
0.03125
141
12.0
290
     0
  0
SCALE
  5
5C
102
{ACAD_REACTORS
330
47
102
}
330
47
100
AcDbScale
 70
     0
300
1/16" = 1'-0"
140
0.0625
141
12.0
290
     0
  0
SCALE
  5
5D
102
{ACAD_REACTORS
330
47
102
}
330
47
100
AcDbScale
 70
     0
300
3/32" = 1'-0"
140
0.09375
141
12.0
290
     0
  0
SCALE
  5
5E
102
{ACAD_REACTORS
330
47
102
}
330
47
100
AcDbScale
 70
     0
300
1/8" = 1'-0"
140
0.125
141
12.0
290
     0
  0
SCALE
  5
5F
102
{ACAD_REACTORS
330
47
102
}
330
47
100
AcDbScale
 70
     0
300
3/16" = 1'-0"
140
0.1875
141
12.0
290
     0
  0
SCALE
  5
60
102
{ACAD_REACTORS
330
47
102
}
330
47
100
AcDbScale
 70
     0
300
1/4" = 1'-0"
140
0.25
141
12.0
290
     0
  0
SCALE
  5
61
102
{ACAD_REACTORS
330
47
102
}
330
47
100
AcDbScale
 70
     0
300
3/8" = 1'-0"
140
0.375
141
12.0
290
     0
  0
SCALE
  5
62
102
{ACAD_REACTORS
330
47
102
}
330
47
100
AcDbScale
 70
     0
300
1/2" = 1'-0"
140
0.5
141
12.0
290
     0
  0
SCALE
  5
63
102
{ACAD_REACTORS
330
47
102
}
330
47
100
AcDbScale
 70
     0
300
3/4" = 1'-0"
140
0.75
141
12.0
290
     0
  0
SCALE
  5
64
102
{ACAD_REACTORS
330
47
102
}
330
47
100
AcDbScale
 70
     0
300
1" = 1'-0"
140
1.0
141
12.0
290
     0
  0
SCALE
  5
65
102
{ACAD_REACTORS
330
47
102
}
330
47
100
AcDbScale
 70
     0
300
1-1/2" = 1'-0"
140
1.5
141
12.0
290
     0
  0
SCALE
  5
66
102
{ACAD_REACTORS
330
47
102
}
330
47
100
AcDbScale
 70
     0
300
3" = 1'-0"
140
3.0
141
12.0
290
     0
  0
SCALE
  5
67
102
{ACAD_REACTORS
330
47
102
}
330
47
100
AcDbScale
 70
     0
300
6" = 1'-0"
140
6.0
141
12.0
290
     0
  0
SCALE
  5
68
102
{ACAD_REACTORS
330
47
102
}
330
47
100
AcDbScale
 70
     0
300
1'-0" = 1'-0"
140
12.0
141
12.0
290
     0
  0
ENDSEC
  0
EOF
